<svg class="mobileHidden" xmlns="http://www.w3.org/2000/svg" viewBox="0 0 195.07 97.45"><defs><style>.cls-1{fill:#fff;}</style></defs><g id="Layer_2" data-name="Layer 2"><g id="Layer_1-2" data-name="Layer 1"><polygon points="195.07 42.81 195.07 97.45 0 97.45 0 42.81 32.26 42.81 65.41 18.7 68.74 20.7 93.31 0 102.15 10.93 114.17 17.23 128.92 30.55 142.6 34.22 155.41 42.81 195.07 42.81"/><path class="cls-1" d="M32.94,53.44l32.94-24,3.75,2.25L92.09,12.8,96.32,18,109,24.67l15.51,14,14.33,3.85,18.82,12.62-22.45-9.73-8.45-1.82-6.31-3-4.71-3.85-13.9-.21-2.46,6.2L78.82,44.46l12-4.6L98.72,34l10.37-2.46L106.42,29,95.29,24.46l-4.7-4.07L71.34,39l-4.71-2.14ZM46.27,72.93a5.81,5.81,0,0,1-4,1.2,6.8,6.8,0,0,1-2.8-.47V60.54a3.55,3.55,0,0,1,.36-1.27,3.79,3.79,0,0,1,.88-1H33a2.39,2.39,0,0,1,1,.88,2.84,2.84,0,0,1,.34,1.24V74.49a2.74,2.74,0,0,1-.76,1.83,2.83,2.83,0,0,1-.61.47l12.35,0Zm20.17,3.83a6.7,6.7,0,0,1-1.09-1.17,5,5,0,0,1-.83-1.39L58.76,58.29h-7A1.86,1.86,0,0,1,53,60a1.59,1.59,0,0,1-.1.64L48,74.71A4.16,4.16,0,0,1,47.14,76a4.5,4.5,0,0,1-.68.76h6.2a1.9,1.9,0,0,1-1.27-1,2.35,2.35,0,0,1,0-1.71l1-2.93H58l1,3a1.91,1.91,0,0,1,0,1.68,1.93,1.93,0,0,1-1.22,1Zm-9.37-8.32h-3.9l1.95-5.37Zm26.16,4.2-2,.83a9.07,9.07,0,0,1-4,.88c-4.14,0-5.83-3.27-5.8-6.69,0-2.71.29-6.51,4.9-6.64a7.22,7.22,0,0,1,4.42,1.44l-.12-3.88-3.18-.24C70.44,57.8,66,61.85,66,67.56c0,6.76,5.73,10.74,13,9.54l2.85-.48Zm18.49,4.19c-.22-.19-.34-.31-.58-.51a4,4,0,0,1-.64-.71l-6.2-9.76,6.3-7.56h-7a1.61,1.61,0,0,1,1.2,1.29,1.53,1.53,0,0,1-.3,1.37L90,66.68V60.34a3.07,3.07,0,0,1,.39-1.22,2.2,2.2,0,0,1,.93-.83H83.54a2.36,2.36,0,0,1,.86.73,4.69,4.69,0,0,1,.53,1.32l0,14a2.58,2.58,0,0,1-.73,2,2.19,2.19,0,0,1-.51.42h7.61a2.52,2.52,0,0,1-.9-1A3.52,3.52,0,0,1,90,73.74v-5.2l3.88,6.59a2.91,2.91,0,0,0,1.25,1.07,13.2,13.2,0,0,0,5.15.63Zm19.39-.07a13.13,13.13,0,0,1-2-2.19c-1.26-1.88-1.75-3.08-3.61-6.06l-.46-.75.22-.1c.12,0,3.07-1.27,3.15-4.2,0-2.61-1.52-5.17-5.52-5.17h-9a2.1,2.1,0,0,1,.61.54,5.25,5.25,0,0,1,.53,1.51l0,14a2.5,2.5,0,0,1-.83,2,4.91,4.91,0,0,1-.51.39h7.71a2.26,2.26,0,0,1-.93-1,4.18,4.18,0,0,1-.29-2.07V68.93l3,5.68a4.69,4.69,0,0,0,1.64,2c1.19.61,3,.12,3.88.12Zm-7.84-12.59a3.5,3.5,0,0,1-3,3.27V61.17h.75C112.57,61.17,113.32,62.51,113.27,64.17Zm27.29,3.1c0-5.54-4.37-9.2-10.27-9.2-6.17,0-10.44,4.25-10.44,9.69a9.42,9.42,0,0,0,9.85,9.51C136.05,77.27,140.56,73.57,140.56,67.27Zm-5.49,1.27c0,3.07-1.32,5.95-4.78,5.95-3.17,0-5.08-3.85-5.08-7.59,0-3.29,1.56-6.07,4.69-6.07C133.58,60.83,135.07,64.78,135.07,68.54Zm24.59,4.1-2,.83a9.07,9.07,0,0,1-4,.88c-4.15,0-5.83-3.27-5.8-6.69,0-2.71.29-6.51,4.9-6.64a7.22,7.22,0,0,1,4.42,1.44l-.13-3.88-3.17-.24c-7-.54-11.47,3.51-11.51,9.22,0,6.76,5.73,10.74,13,9.54l2.86-.48Zm-128.23-.8c.08-4.06-2.34-6.52-6.1-7.49,2.49-.74,4.73-2.72,4.54-5.47-.22-3.24-2.31-6.74-8.08-6.74H8.27a4.08,4.08,0,0,1,1.38,1.75,3.8,3.8,0,0,1,.44,1.9l0,21.48A3.09,3.09,0,0,1,9,79.51a3.06,3.06,0,0,1-1,.82H23A8.59,8.59,0,0,0,31.43,71.84ZM21.94,59.58c0,1.75-1.23,3.73-3.09,3.58l-.9-.08V56.46l.9-.27C20.63,55.79,21.9,57.54,21.94,59.58ZM23.73,71.5c.26,5.14-4.4,5.07-5.14,4.62l-.6-.34v-9h1.53C22.53,66.81,23.58,68.52,23.73,71.5ZM52,87.84l-.85.36a4,4,0,0,1-1.73.38c-1.79,0-2.52-1.42-2.51-2.9,0-1.17.12-2.82,2.12-2.88a3.1,3.1,0,0,1,1.92.63l-.06-1.68-1.37-.11c-3.06-.23-5,1.52-5,4,0,2.93,2.48,4.65,5.64,4.13l1.24-.21Zm10.88-2.33c0-2.4-1.9-4-4.45-4a4.24,4.24,0,0,0-4.53,4.2,4.09,4.09,0,0,0,4.27,4.13C60.91,89.85,62.87,88.24,62.87,85.51Zm-2.38.55c0,1.33-.57,2.58-2.07,2.58s-2.2-1.67-2.2-3.29c0-1.43.67-2.63,2-2.63C59.84,82.72,60.49,84.43,60.49,86.06ZM73,81.62H70.61a1.82,1.82,0,0,1,.36.54,1.34,1.34,0,0,1,.17.65v3.78l-3.71-5H64.9a2.87,2.87,0,0,1,.52.7,2,2,0,0,1,.18,1v5.09a1.7,1.7,0,0,1-.24.88,1.39,1.39,0,0,1-.31.37h2.41a1.42,1.42,0,0,1-.32-.37,1.4,1.4,0,0,1-.24-.87V84.64l2.78,3.74a4.21,4.21,0,0,0,1.43,1.11,3.94,3.94,0,0,0,1.3.45V82.82a1.25,1.25,0,0,1,.17-.68A1.86,1.86,0,0,1,73,81.62Zm8,5.53a2.59,2.59,0,0,0-1.57-2.22l-.8-.37c-.84-.4-1.49-.68-1.24-1.32a1,1,0,0,1,1.1-.54,3,3,0,0,1,1.14.3l.48.27V81.85l-.76-.19A5.93,5.93,0,0,0,78,81.51c-1.55.06-2.85.84-2.89,2.19s.56,1.86,2,2.55l.85.41c.47.23.86.52.86,1s-.51.82-1.16.86a3.37,3.37,0,0,1-1.76-.42L75,87.65l.36,1.67.3.1a5.87,5.87,0,0,0,2.07.38C79.58,89.79,81,88.78,81,87.15Zm8.29-5.53H83.39l-.46,1.72a1.52,1.52,0,0,1,.5-.3,1.56,1.56,0,0,1,.57-.17h.86l.11,0v5.69a1.17,1.17,0,0,1-.29.83,1.51,1.51,0,0,1-.23.21h3.38a1.07,1.07,0,0,1-.4-.39,1,1,0,0,1-.22-.78V82.94l.18-.07H88a.88.88,0,0,1,.6.22,1.78,1.78,0,0,1,.23.31Zm9.42,8a5.12,5.12,0,0,1-.85-1c-.55-.81-.76-1.33-1.57-2.62l-.2-.33.1,0a2.19,2.19,0,0,0,1.36-1.82,2.13,2.13,0,0,0-2.39-2.24H91.27a1,1,0,0,1,.27.23,2.6,2.6,0,0,1,.23.66V88.6a1.1,1.1,0,0,1-.36.87,1.77,1.77,0,0,1-.22.16h3.34a.9.9,0,0,1-.4-.44,1.8,1.8,0,0,1-.13-.9V86.23l1.31,2.46a2,2,0,0,0,.71.87,3.58,3.58,0,0,0,1.68,0Zm-3.4-5.45A1.51,1.51,0,0,1,94,85.58V82.87h.33C95,82.87,95.32,83.45,95.3,84.17Zm13.12,5.46a1,1,0,0,1-.35-.32,1.43,1.43,0,0,1-.19-.92V82.53a1.43,1.43,0,0,1,.18-.54,1.41,1.41,0,0,1,.36-.37h-3.28a1.3,1.3,0,0,1,.37.37,1.06,1.06,0,0,1,.16.51v4.33c0,.81-.42,1.61-1.18,1.58s-1-.45-1-1.59V82.51a1.38,1.38,0,0,1,.18-.54,1.07,1.07,0,0,1,.41-.35h-3.41a1,1,0,0,1,.45.34,1.93,1.93,0,0,1,.19.63v5.12a2.15,2.15,0,0,0,2,2,2.4,2.4,0,0,0,2.45-1.08v1Zm9.41-1.79-.86.36a3.9,3.9,0,0,1-1.72.38c-1.8,0-2.53-1.42-2.52-2.9,0-1.17.13-2.82,2.13-2.88a3.07,3.07,0,0,1,1.91.63l0-1.68-1.37-.11c-3.06-.23-5,1.52-5,4,0,2.93,2.49,4.65,5.65,4.13l1.24-.21Zm8.27-6.22h-5.89l-.46,1.72a1.46,1.46,0,0,1,.51-.3,1.51,1.51,0,0,1,.57-.17h.85l.11,0v5.69a1.13,1.13,0,0,1-.29.83,1.15,1.15,0,0,1-.23.21h3.38a1.15,1.15,0,0,1-.4-.39,1,1,0,0,1-.22-.78V82.94l.18-.07h.6a.9.9,0,0,1,.61.22,1.8,1.8,0,0,1,.22.31Zm5.78,8a.93.93,0,0,1-.39-.37,1.46,1.46,0,0,1-.16-.91V82.53a1.3,1.3,0,0,1,.17-.52,1.41,1.41,0,0,1,.38-.39h-3.4a1.11,1.11,0,0,1,.42.38,1.45,1.45,0,0,1,.16.53v6.08a1,1,0,0,1-.31.83.83.83,0,0,1-.25.18ZM143,85.51c0-2.4-1.9-4-4.46-4a4.24,4.24,0,0,0-4.52,4.2,4.09,4.09,0,0,0,4.27,4.13C141.06,89.85,143,88.24,143,85.51Zm-2.38.55c0,1.33-.57,2.58-2.08,2.58s-2.2-1.67-2.2-3.29c0-1.43.68-2.63,2-2.63C140,82.72,140.64,84.43,140.64,86.06Zm12.46-4.44h-2.34a2,2,0,0,1,.36.54,1.34,1.34,0,0,1,.17.65v3.78l-3.71-5h-2.53a2.87,2.87,0,0,1,.52.7,2,2,0,0,1,.18,1v5.09a1.7,1.7,0,0,1-.24.88,1.39,1.39,0,0,1-.31.37h2.41a1.42,1.42,0,0,1-.32-.37,1.4,1.4,0,0,1-.24-.87V84.64l2.78,3.74a4,4,0,0,0,1.43,1.11,3.94,3.94,0,0,0,1.3.45V82.82a1.25,1.25,0,0,1,.17-.68A1.86,1.86,0,0,1,153.1,81.62ZM188,80.75c-.34-.29-.53-.48-.9-.78a6.86,6.86,0,0,1-1-1.08L176.68,64l9.61-11.54H175.57a2.43,2.43,0,0,1,1.82,2,2.32,2.32,0,0,1-.45,2.09l-6.77,8.75V55.58a4.53,4.53,0,0,1,.59-1.87,3.34,3.34,0,0,1,1.42-1.26H160.26a3.31,3.31,0,0,1,1.3,1.12,7.13,7.13,0,0,1,.82,2l0,21.41a4,4,0,0,1-1.11,3.06,3.48,3.48,0,0,1-.78.63h11.62a3.93,3.93,0,0,1-1.38-1.45,5.45,5.45,0,0,1-.52-3.21V68.09l5.92,10.06a4.54,4.54,0,0,0,1.9,1.64c2.86,1.26,7.11,1,7.86,1Z"/></g></g></svg>