<svg xmlns="http://www.w3.org/2000/svg" viewBox="0 0 180 77.14"><defs><style>.cls-1{fill:#fff;}</style></defs><g id="Layer_2" data-name="Layer 2"><g id="Layer_1-2" data-name="Layer 1"><path class="cls-1" d="M24.94,40.64l32.94-24,3.74,2.25L84.08,0l4.23,5.24L101,11.87l15.51,14,14.33,3.85,18.83,12.62-22.46-9.73-8.45-1.82-6.31-3L107.71,24l-13.9-.22L91.35,30,70.82,31.66l12-4.6,7.92-5.88,10.37-2.46-2.67-2.57L87.29,11.66,82.58,7.59,63.33,26.2l-4.71-2.14ZM38.26,60.13a5.73,5.73,0,0,1-4,1.2,6.82,6.82,0,0,1-2.81-.47V47.74a3.41,3.41,0,0,1,.37-1.27,3.58,3.58,0,0,1,.87-1H25a2.39,2.39,0,0,1,1,.88,2.88,2.88,0,0,1,.34,1.24V61.69a2.79,2.79,0,0,1-.75,1.83,3.1,3.1,0,0,1-.61.47l12.34,0ZM58.44,64a6.4,6.4,0,0,1-1.1-1.17,4.89,4.89,0,0,1-.83-1.39L50.75,45.49h-7A1.86,1.86,0,0,1,45,47.22a1.59,1.59,0,0,1-.1.64L40,61.91a4.49,4.49,0,0,1-.87,1.3,4.91,4.91,0,0,1-.69.75h6.2a1.92,1.92,0,0,1-1.27-1,2.3,2.3,0,0,1,0-1.71l1-2.92h5.53l1,3a1.94,1.94,0,0,1,0,1.68,2,2,0,0,1-1.22,1Zm-9.37-8.32H45.16l2-5.37Zm26.15,4.2-2,.83a9.06,9.06,0,0,1-4,.88c-4.15.05-5.84-3.27-5.81-6.69,0-2.71.29-6.51,4.9-6.64a7.23,7.23,0,0,1,4.42,1.44l-.12-3.88-3.17-.24C62.43,45,58,49.05,58,54.76c0,6.76,5.73,10.74,13,9.54l2.85-.48ZM93.71,64c-.22-.2-.34-.32-.58-.52a4.33,4.33,0,0,1-.64-.7L86.3,53.06l6.29-7.57h-7a1.6,1.6,0,0,1,1.2,1.3,1.54,1.54,0,0,1-.29,1.36L82,53.89V47.54a2.91,2.91,0,0,1,.39-1.22,2.12,2.12,0,0,1,.92-.83h-7.8a2.25,2.25,0,0,1,.85.73,4.8,4.8,0,0,1,.54,1.32l0,14a2.58,2.58,0,0,1-.73,2,2.19,2.19,0,0,1-.51.42h7.61a2.74,2.74,0,0,1-.9-1,3.56,3.56,0,0,1-.34-2.1v-5.2l3.88,6.59a2.88,2.88,0,0,0,1.24,1.07A13.27,13.27,0,0,0,92.3,64ZM113.1,64a12.28,12.28,0,0,1-1.95-2.19c-1.27-1.88-1.76-3.08-3.61-6.05l-.47-.76.22-.1c.12,0,3.08-1.27,3.15-4.2,0-2.61-1.51-5.17-5.52-5.17H96a2.1,2.1,0,0,1,.61.54,5.35,5.35,0,0,1,.54,1.51l0,14.06a2.47,2.47,0,0,1-.83,2,4.91,4.91,0,0,1-.51.39h7.71a2.26,2.26,0,0,1-.93-1,4.18,4.18,0,0,1-.29-2.07V56.13l3,5.69a4.61,4.61,0,0,0,1.63,2c1.2.61,3,.12,3.88.12Zm-7.83-12.59a3.52,3.52,0,0,1-3,3.27V48.37h.76C104.56,48.37,105.32,49.71,105.27,51.37Zm27.28,3.1c0-5.54-4.36-9.2-10.27-9.2-6.17,0-10.44,4.25-10.44,9.69a9.43,9.43,0,0,0,9.86,9.52C128,64.48,132.55,60.77,132.55,54.47Zm-5.49,1.27c0,3.07-1.32,5.95-4.78,5.95-3.17,0-5.08-3.85-5.08-7.58,0-3.3,1.57-6.08,4.69-6.08C125.57,48,127.06,52,127.06,55.74Zm24.59,4.1-2,.83a9.07,9.07,0,0,1-4,.88c-4.14.05-5.83-3.27-5.8-6.69,0-2.71.29-6.51,4.9-6.64a7.26,7.26,0,0,1,4.42,1.44l-.12-3.88-3.18-.24c-7-.54-11.46,3.51-11.51,9.22-.05,6.76,5.73,10.74,13,9.54l2.85-.48ZM23.43,59c.07-4.06-2.35-6.52-6.11-7.49,2.49-.74,4.73-2.72,4.54-5.47-.22-3.24-2.31-6.74-8.08-6.74H.26a4,4,0,0,1,1.38,1.75A3.81,3.81,0,0,1,2.09,43l0,21.49a3.11,3.11,0,0,1-1,2.23,3.07,3.07,0,0,1-1,.82H15A8.61,8.61,0,0,0,23.43,59Zm-9.5-12.26c0,1.76-1.23,3.73-3.09,3.58l-.9-.07V43.66l.9-.26C12.63,43,13.89,44.74,13.93,46.78ZM15.72,58.7c.26,5.14-4.4,5.07-5.14,4.62L10,63V54h1.53C14.53,54,15.57,55.72,15.72,58.7ZM44,75l-.86.36a3.94,3.94,0,0,1-1.73.38c-1.79,0-2.52-1.42-2.51-2.9,0-1.17.13-2.82,2.12-2.88a3.1,3.1,0,0,1,1.92.63l0-1.68-1.38-.11c-3.06-.23-5,1.52-5,4,0,2.93,2.48,4.65,5.65,4.13l1.23-.21Zm10.87-2.33c0-2.4-1.89-4-4.45-4a4.24,4.24,0,0,0-4.53,4.19,4.09,4.09,0,0,0,4.27,4.13C52.9,77.05,54.86,75.44,54.86,72.71Zm-2.38.55c0,1.33-.57,2.58-2.07,2.58s-2.2-1.67-2.2-3.29c0-1.42.67-2.63,2-2.63C51.83,69.92,52.48,71.63,52.48,73.26Zm12.46-4.44H62.6a1.82,1.82,0,0,1,.36.54,1.35,1.35,0,0,1,.17.66v3.77l-3.71-5H56.89a2.63,2.63,0,0,1,.52.7,2,2,0,0,1,.18,1v5.09a1.65,1.65,0,0,1-.24.89,1.79,1.79,0,0,1-.31.37h2.41a1.85,1.85,0,0,1-.32-.37,1.45,1.45,0,0,1-.24-.88V71.84l2.78,3.74a4.09,4.09,0,0,0,1.43,1.11,4,4,0,0,0,1.3.45V70a1.27,1.27,0,0,1,.17-.69A2.1,2.1,0,0,1,64.94,68.82Zm8,5.53a2.6,2.6,0,0,0-1.57-2.22l-.8-.37c-.83-.4-1.49-.68-1.24-1.32a1,1,0,0,1,1.1-.54,2.94,2.94,0,0,1,1.15.31l.47.26V69.05l-.76-.19A5.9,5.9,0,0,0,70,68.71c-1.56.06-2.86.84-2.9,2.19s.56,1.86,2,2.55l.84.41c.47.23.86.52.86,1s-.51.83-1.15.86a3.41,3.41,0,0,1-1.77-.42L67,74.85l.36,1.67.3.1a5.94,5.94,0,0,0,2.07.39C71.57,77,73,76,73,74.35Zm8.29-5.53H75.38l-.46,1.72a1.63,1.63,0,0,1,.51-.3,1.51,1.51,0,0,1,.57-.17h.85l.11,0v5.69a1.13,1.13,0,0,1-.29.83,1.61,1.61,0,0,1-.23.22h3.38a1.18,1.18,0,0,1-.4-.4,1,1,0,0,1-.22-.78V70.14l.18-.07H80a.9.9,0,0,1,.61.22,1.8,1.8,0,0,1,.22.31Zm9.42,8a6,6,0,0,1-.85-1c-.55-.81-.76-1.33-1.56-2.62l-.2-.33.09,0a2.19,2.19,0,0,0,1.36-1.82,2.13,2.13,0,0,0-2.39-2.24H83.26a1,1,0,0,1,.27.23,2.6,2.6,0,0,1,.23.66V75.8a1.07,1.07,0,0,1-.36.87c-.07.07-.14.1-.22.17h3.34a1,1,0,0,1-.4-.45,1.78,1.78,0,0,1-.13-.9V73.43l1.31,2.46a2,2,0,0,0,.71.87,3.58,3.58,0,0,0,1.68,0Zm-3.4-5.46A1.52,1.52,0,0,1,86,72.79V70.07h.33C87,70.07,87.31,70.65,87.29,71.37Zm13.12,5.47a1.1,1.1,0,0,1-.35-.33,1.43,1.43,0,0,1-.19-.92V69.73a1.43,1.43,0,0,1,.18-.54,1.58,1.58,0,0,1,.36-.37H97.13a1.3,1.3,0,0,1,.37.37,1,1,0,0,1,.16.51V74c0,.81-.41,1.61-1.17,1.58s-1-.44-1-1.59V69.71a1.38,1.38,0,0,1,.18-.54,1.16,1.16,0,0,1,.41-.35h-3.4a1,1,0,0,1,.44.34,1.71,1.71,0,0,1,.19.63v5.12a2.15,2.15,0,0,0,2,2,2.39,2.39,0,0,0,2.44-1.08v1Zm9.41-1.8-.85.36a4,4,0,0,1-1.73.38c-1.79,0-2.52-1.42-2.51-2.9,0-1.17.12-2.82,2.12-2.88a3.1,3.1,0,0,1,1.92.63L108.71,69l-1.37-.11c-3.06-.23-5,1.52-5,4,0,2.93,2.48,4.65,5.64,4.13l1.24-.21Zm8.28-6.22h-5.9l-.46,1.72a1.76,1.76,0,0,1,.51-.3,1.51,1.51,0,0,1,.57-.17h.85l.11,0v5.69a1.17,1.17,0,0,1-.28.83,2.5,2.5,0,0,1-.24.22h3.39a1.1,1.1,0,0,1-.4-.4,1,1,0,0,1-.23-.78V70.14l.18-.07h.61a.9.9,0,0,1,.6.22,1.8,1.8,0,0,1,.22.31Zm5.77,8a1.16,1.16,0,0,1-.39-.37,1.49,1.49,0,0,1-.16-.91V69.73a1.3,1.3,0,0,1,.17-.52,1.41,1.41,0,0,1,.38-.39h-3.39a1.15,1.15,0,0,1,.41.38,1.28,1.28,0,0,1,.16.53v6.08a1.08,1.08,0,0,1-.31.84,1.14,1.14,0,0,1-.25.18ZM135,72.71c0-2.4-1.89-4-4.45-4A4.24,4.24,0,0,0,126,72.92a4.09,4.09,0,0,0,4.27,4.13C133.05,77.05,135,75.44,135,72.71Zm-2.38.55c0,1.33-.57,2.58-2.07,2.58s-2.2-1.67-2.2-3.29c0-1.42.67-2.63,2-2.63C132,69.92,132.63,71.63,132.63,73.26Zm12.46-4.44h-2.34a1.82,1.82,0,0,1,.36.54,1.35,1.35,0,0,1,.17.66v3.77l-3.71-5H137a2.63,2.63,0,0,1,.52.7,2,2,0,0,1,.18,1v5.09a1.65,1.65,0,0,1-.24.89,1.79,1.79,0,0,1-.31.37h2.41a1.85,1.85,0,0,1-.32-.37,1.45,1.45,0,0,1-.24-.88V71.84l2.78,3.74a4.09,4.09,0,0,0,1.43,1.11,3.94,3.94,0,0,0,1.3.45V70a1.27,1.27,0,0,1,.17-.69A2.1,2.1,0,0,1,145.09,68.82ZM180,68c-.34-.29-.52-.48-.9-.78a6.36,6.36,0,0,1-1-1.08L168.68,51.2l9.6-11.55H167.56a2.43,2.43,0,0,1,1.82,2,2.34,2.34,0,0,1-.44,2.09l-6.78,8.75V42.78a4.45,4.45,0,0,1,.59-1.86,3.36,3.36,0,0,1,1.42-1.27H152.25a3.59,3.59,0,0,1,1.31,1.12,7.46,7.46,0,0,1,.81,2l0,21.41a4,4,0,0,1-1.12,3.06,3.22,3.22,0,0,1-.78.63h11.62a3.93,3.93,0,0,1-1.38-1.45,5.52,5.52,0,0,1-.52-3.21V55.29l5.92,10.06A4.6,4.6,0,0,0,170,67c2.87,1.26,7.11,1,7.86,1Z"/></g></g></svg>