<svg version="1" xmlns="http://www.w3.org/2000/svg" width="3840" height="3840" viewBox="0 0 2880.000000 2880.000000"><path d="M1355.5 960.1c-10 8.4-18.3 15.4-23.9 20.2-1.1 1.1-3.9 3.3-6 5-4 3.3-10.3 8.6-14.3 12.2-1.2 1.1-2.8 2.4-3.5 3-1.9 1.4-13 10.6-14.8 12.2-3.8 3.4-8.7 7.6-11.3 9.6-1.5 1.2-4.1 3.3-5.6 4.7-1.5 1.4-4.5 3.8-6.5 5.5-2 1.6-5.3 4.5-7.2 6.2-1.9 1.8-3.8 3.3-4.3 3.3s-1.1.4-1.3.8c-.1.5-4.6 4.4-9.8 8.8-5.2 4.3-10.4 8.7-11.5 9.7-1.1 1.1-3.6 3.1-5.5 4.6-1.9 1.4-4.2 3.3-5 4.1-.9.8-4 3.5-7 6s-6.1 5.2-7 6c-.9.8-3.6 3.1-6 5.1-2.5 2-5.5 4.5-6.7 5.5-1.2 1.1-3.2 2.8-4.5 3.8-5.5 4.5-15.4 13.2-16 14.1-.4.5-.8.7-.8.3 0-.4-1.3.5-2.8 2-3.1 2.9-4.4 4-13.2 11.2-3 2.5-5.7 4.8-6 5.1-.3.3-4.8 4.1-10 8.4-5.2 4.3-9.9 8.3-10.5 8.9-.5.6-3.2 2.9-5.9 5.1-2.7 2.1-6 4.8-7.2 6-1.2 1.1-3.7 3.2-5.5 4.7-1.9 1.4-4.5 3.6-5.9 4.8-1.4 1.2-4.7 4-7.5 6.3-6.8 5.8-24.7 20.9-26.2 22.2-.6.5-2.8 2.3-4.9 4-2 1.6-5 4.2-6.6 5.7-1.6 1.6-3.3 2.8-3.8 2.8-.4 0-1 .4-1.2.8-.2.7-9.6 8.8-22.3 19.3-1.9 1.6-8.9 7.5-13.1 11-4.4 3.6-19.1 16.1-21.4 18.2-1.4 1.2-7.9 6.7-14.5 12.2-6.6 5.5-12.2 10.2-12.5 10.5-.3.3-5.9 5-12.5 10.5s-12.5 10.7-13.2 11.5c-.7.8-1.3 1.2-1.3.8 0-.3-1.8 1-3.9 3-2.1 2-4.7 4.4-5.7 5.2-1.1.8-5.9 4.9-10.9 9-4.9 4.1-10 8.4-11.4 9.5-1.3 1.1-2.9 2.4-3.5 3-.6.5-4.3 3.7-8.1 7-3.9 3.3-7.3 6.4-7.7 7-.4.5-.8.7-.8.3 0-.4-1 .3-2.3 1.5-2.6 2.5-5.5 5-14.2 12.2-9.2 7.7-10.6 8.9-11.9 10-.6.6-5.1 4.4-10.1 8.5-4.9 4.1-9.3 7.9-9.6 8.3-.5.7-17.1-8.4-26.9-14.8-1.9-1.3-5.5-3.3-8-4.6-2.5-1.3-4.7-2.7-5-3.1-.3-.4-2.6-1.8-5.1-3.2-2.5-1.3-6.6-3.6-9-5.2-2.4-1.6-4.6-2.9-4.9-2.9-.3 0-1.7-.8-3.2-1.8-1.6-.9-4-2.5-5.5-3.4-1.6-1-3.1-1.6-3.5-1.5-.5.1-.8-.2-.8-.8 0-.5-.7-1-1.5-1s-1.5-.5-1.5-1c0-.6-.7-1-1.5-1s-1.5-.5-1.5-1.1c0-.5-.4-.8-.9-.4-.5.3-1.2.1-1.6-.4-.3-.5-2-1.7-3.7-2.5-3.1-1.6-3.2-1.6-10 3.1-3.7 2.5-6.8 5.1-6.8 5.5 0 .5-.4.7-.8.4-.5-.3-2 .6-3.5 2-1.4 1.3-2.9 2.4-3.1 2.4-.3 0-1.4.7-2.3 1.5-4.8 3.9-19.6 14.5-20.3 14.5-.5 0-1 .4-1.2.8-.1.4-3.9 3.3-8.3 6.5-8.4 5.9-11.6 8.4-14 10.4-.7.7-1.6 1.3-1.9 1.3-.5 0-13.1 9.2-16.3 12-.7.5-1.7 1-2.3 1-.5 0-1 .4-1 .8s-1.3 1.6-3 2.5c-1.6 1-3.5 2.3-4.2 3-1.2 1.1-27 19.9-30.6 22.2-.8.5-2.3 1.7-3.3 2.5-3.7 3.2-4.8 4-5.3 4s-7.8 5.2-11.8 8.5c-.9.8-2.9 2.2-4.5 3.2-1.5.9-3 2-3.3 2.4-.3.3-5 3.8-10.5 7.7-5.5 3.9-10.4 7.5-11 7.9-.5.5-2.6 2-4.5 3.3-1.9 1.3-4.1 3-4.8 3.7-.7.7-1.7 1.3-2.1 1.3-.4 0-1.6.8-2.7 1.8-1.9 1.7-15.5 11.6-21.8 15.8-1.7 1.2-3.7 2.9-4.5 3.8-.7.9-1.9 1.6-2.6 1.6-.8 0-1.5.3-1.7.7-.5 1.3-15.6 12.3-16.8 12.3-.5 0-1 .4-1 .8s-1.2 1.5-2.8 2.4c-1.5.9-3.7 2.5-4.9 3.5-1.1 1-4.7 3.6-7.8 5.8-3.1 2.2-6.3 4.6-7 5.2-.8.7-1.8 1.3-2.4 1.3-.6 0-1.1.3-1.1.8 0 .4-1.8 1.8-4 3.2-2.2 1.4-4 2.8-4 3.2 0 .4-.8.9-1.8 1.2-1 .4-2.7 1.4-3.8 2.4-1 1-4.1 3.3-6.9 5.2-2.7 1.9-5.9 4.2-6.9 5.2-1.1 1-2.3 1.8-2.7 1.8-.4 0-1.4.6-2.1 1.3-.7.7-3.5 2.8-6.3 4.7-2.7 1.9-5.2 3.7-5.5 4-.3.3-2.1 1.7-4 3s-4.1 3-4.8 3.7c-.7.7-1.7 1.3-2.1 1.3-.4 0-1.6.8-2.7 1.8-1 1-4.1 3.3-6.9 5.2-2.7 1.9-5.9 4.2-6.9 5.2-1.1 1-2.3 1.8-2.7 1.8-.4 0-1.4.6-2.1 1.3-.7.7-2.4 2-3.8 2.9-2 1.4-14.7 10.6-30.5 22.2-8.3 6.1-13.4 9.8-20 14.6-9.3 6.7-28.4 20.6-30.5 22.3-.9.7-3.6 2.5-6 4.2-2.5 1.6-4.7 3.3-5 3.7-.3.4-2.1 1.7-4 3.1-3.5 2.3-28.6 20.4-30.5 21.9-.5.4-2.4 1.9-4.1 3.3-1.8 1.4-3.5 2.5-3.8 2.5-.3 0-1.5.8-2.5 1.7-3.3 3-5 4.3-5.7 4.3-.3 0-1.9 1-3.4 2.2-1.5 1.3-3.7 3-4.9 3.8-1.2.8-5.3 3.7-9 6.5-14.1 10.4-31.7 23.2-35.1 25.5-1.9 1.3-3.7 2.7-4 3-.3.3-4.3 3.3-8.9 6.5-4.6 3.3-10 7.2-12 8.8-2 1.5-4.8 3.5-6.3 4.5-1.6.9-2.8 2-2.8 2.4 0 .5-.5.8-1.1.8-.6 0-2.4 1-3.9 2.2-1.5 1.3-3.7 3-5 3.8-1.3.8-3.5 2.4-4.9 3.6-2.8 2.2-37.6 27.5-50 36.3-4.1 3-7.9 5.7-8.5 6.2-2.5 2.1-38.5 28.2-40.4 29.4-.9.5-3.1 2.1-4.9 3.5-1.7 1.4-4.8 3.6-6.8 5s-4.2 3-4.8 3.5c-.7.6-4.3 3.3-8.2 6-3.8 2.7-7.2 5.3-7.3 5.7-.2.4-1 .8-1.8.8s-1.7.7-2 1.5c-.4.8-1.2 1.5-2 1.5s-1.4.4-1.4.8-1.2 1.5-2.7 2.4c-1.6.9-3.7 2.4-4.8 3.3-1.1.8-5.1 3.8-9 6.5-9.9 7-16.7 12.4-15 11.8 2.6-.9 13-6.4 13.3-7.1.2-.4.8-.7 1.4-.7.5 0 9.7-4.3 20.4-9.5 10.6-5.3 19.7-9.5 20-9.5.4.1 1-.2 1.3-.7.5-.7 21.7-11.5 23.1-11.8.3 0 9.7-4.7 20.9-10.3 11.3-5.6 21-10.2 21.7-10.2.7 0 1.4-.3 1.6-.8.4-.8 10-5.6 11-5.4.3.1 1.2-.5 1.8-1.3.7-.8 2.1-1.5 3-1.5 1 0 2-.4 2.2-.8.3-.9 9.3-5.2 10.8-5.2.5 0 1-.5 1-1 0-.6.5-1 1-1 .6 0 17.3-8.1 37.3-17.9 19.9-9.9 36.9-18.1 37.7-18.3.8-.2 2.3-1.1 3.4-2.1s2.6-1.5 3.3-1.3c.7.3 1.3.2 1.3-.2s8.2-4.8 18.3-9.7c10-4.9 18.5-9.4 18.8-9.8.3-.5 1-.8 1.5-.8s8.3-3.6 17.4-8.1c9.1-4.5 16.7-8.2 17-8.3.3 0 1.6-.7 3-1.5 3-1.6 20.3-10.3 21-10.5.3 0 12.9-6.2 28-13.8 15.1-7.5 27.9-13.6 28.4-13.6.5.1 1.2-.3 1.5-.8.9-1.3 4.9-3.3 6.5-3.3.8 0 1.6-.3 1.8-.8.1-.4 3.7-2.3 7.8-4.2 4.1-1.9 7.8-3.9 8.1-4.3.3-.5 1-.9 1.5-.9s8-3.5 16.6-7.8c8.7-4.3 15.8-7.6 15.8-7.4 0 .3.7-.2 1.6-1 .8-.9 1.9-1.4 2.4-1.1.5.3 1 .2 1.2-.2.1-.5 4.1-2.7 8.8-5 32.1-15.7 53.6-26.5 54.7-27.5.7-.6 1.3-.8 1.3-.4 0 .3 2.9-.9 6.4-2.9 3.5-1.9 6.6-3.2 7-2.8.3.3.6.2.6-.4 0-.9 3.4-2.4 4.9-2.2.2 0 .7-.3 1-.8.5-.7 39.5-20.4 41.1-20.8.3 0 11.6-5.6 25.1-12.3 13.5-6.7 25.1-12.2 25.7-12.2.7 0 1.2-.3 1.2-.8 0-.7 7.3-4.2 8.9-4.2.5 0 1.1-.3 1.3-.8.2-.4 4.1-2.5 8.8-4.7 4.7-2.2 9.2-4.6 10.2-5.3.9-.7 2.2-1.5 3-1.7 3.8-.9 5.8-1.8 5.8-2.7 0-.5.5-.6 1-.3.6.3 1 .1 1-.4 0-.6.3-1 .8-.9 1 .2 10.5-4.4 11.3-5.5.3-.5.9-.8 1.3-.7.6.2 31.1-14.4 35.6-17 .8-.5 4.2-2.2 7.5-3.8 23.8-11.6 30.1-14.8 30.6-15.5.3-.5.9-.8 1.3-.8.3.1 2.9-1 5.8-2.4 2.8-1.4 5.8-2.5 6.6-2.5.8 0 4.2 1.3 7.6 2.9 7 3.3 14.9 6.9 22.1 10.1 2.8 1.3 7.7 3.6 10.9 5.1 3.3 1.6 6.5 2.9 7.3 2.9.7 0 1.3.5 1.3 1 0 .6.3.9.8.8.8-.2 2.9.7 14.7 6.2 5 2.2 12.6 5.7 17 7.7 4.4 1.9 8.7 3.9 9.5 4.4.8.5 2.2 1.2 3 1.6.8.3 3.8 1.6 6.6 2.9 2.8 1.2 5.9 2.4 6.8 2.6.9.2 9.1-7 21.2-18.7 10.9-10.5 23.3-22.5 27.7-26.8 4.5-4.2 8.4-7.7 8.8-7.7.4 0 1.1-.9 1.4-2 .3-1.1 1-2 1.4-2 .5 0 6.5-5.5 13.4-12.3 6.9-6.7 19.8-19.2 28.7-27.7 8.9-8.5 19.4-18.7 23.4-22.5 14.4-14 60.2-58.2 94.4-91 6.8-6.6 17.2-16.6 23-22.3 5.8-5.6 10.6-10.2 10.6-10.2.1 0 5.4-5.1 11.7-11.3 6.4-6.1 21-20.2 32.4-31.2 11.4-11 24.7-23.8 29.6-28.5 4.8-4.7 17.2-16.6 27.5-26.5 10.3-9.9 22.2-21.4 26.4-25.5 4.3-4.1 17.5-17 29.5-28.5 12-11.6 24.7-23.8 28.2-27.2 7-6.8 6.1-6.6 11.7-1.8.6.5 4.1 3.5 7.6 6.5 3.6 3 6.7 5.7 7 6 .3.3 3.2 2.7 6.5 5.4 3.3 2.8 6.7 5.7 7.6 6.5.9.9 2.7 2.5 4 3.6 6.8 5.7 15.6 13.1 16.7 14.2.7.7 3.4 2.9 6 5 2.5 2.1 5.6 4.7 6.8 5.8 1.1 1.1 3.9 3.5 6.2 5.3 2.2 1.9 5.2 4.4 6.5 5.5 1.3 1.2 4.5 4.1 7.3 6.4 2.7 2.3 6 5.1 7.4 6.3 1.4 1.2 4.5 3.8 6.9 5.8 2.4 2.1 4.9 4.1 5.5 4.7 1.4 1.3 5.4 3.2 8.6 4.1 1.4.4 2.7 1 3 1.4.3.4 2.5 1.4 5 2.3 5.1 1.8 39.9 16 44.7 18.2 1.7.8 3.3 1.5 3.6 1.5.2 0 2.2.8 4.3 1.7 2.2.9 4.1 1.7 4.4 1.8.3.1 2.6 1.1 5.2 2.3 2.6 1.2 5 2.2 5.3 2.2.4 0 2.1.6 3.8 1.4 5 2.2 7.1 2.9 8 2.8.4-.1.7.2.7.8 0 .5.5 1 1.1 1 .6 0 11.5 4.3 24.2 9.6 12.8 5.3 23.7 9.7 24.2 9.8.6.1 2.8 1 5 2s4.9 2.1 6 2.6c1.1.4 3.8 1.5 6 2.5s4.2 1.9 4.5 1.9c1.4.3 12.6 5 13.4 5.8.6.4 1.8.8 2.8.8 1 0 1.8.4 1.8 1 0 .5.3.9.8.8.8-.3 22.1 8.1 23.8 9.4.6.4 1.4.5 1.7.1.4-.3.7 0 .7.7s.2 1.1.6.8c.3-.3 4.2 1 8.7 2.9 4.5 1.9 9.3 4 10.7 4.5 1.4.6 3 1.2 3.5 1.4 2.6.7 12.1 5 12.6 5.7.3.5 1 .8 1.5.8 3-.3 8 2.9 15.4 10 4.7 4.4 14.5 13.8 21.9 20.7 7.3 7 17 16.2 21.5 20.4 4.4 4.3 8.4 7.8 8.9 7.8.4 0 .7.8.7 1.8 0 1.2-.8 1.8-2.2 1.9-1.3.1-6.1 1.1-10.8 2.3-8.9 2.2-11.2 2.7-14.5 3.4-1.7.4-5.3 1.2-13.5 3.1-.8.2-6.5 1.5-12.6 2.9-6.2 1.4-11.8 2.8-12.5 3.1-.8.2-2.5.7-3.9.9-1.4.3-4.5 1.1-7 1.7-2.5.6-5.4 1.3-6.5 1.5-1.6.3-12 2.7-21.7 5-1 .2-2.6.6-3.5.8-1 .2-4.9 1.2-8.8 2.1-3.8.9-8.1 1.9-9.5 2.1-1.4.3-3.3.7-4.2 1-.9.3-2.5.7-3.5.9-1 .2-7.6 1.8-14.8 3.5-7.1 1.7-13.9 3.3-15 3.5-1.1.2-4 .9-6.5 1.4-4.1.9-5.7 1.3-10.7 2.5-7.2 1.7-12.2 2.8-14.3 3.2-1.4.3-3.4.8-4.5 1.1-2.3.8-1.7.7-7.5 1.8-5.3 1-5.9 1.2-6.2 1.5-.4.2-2.5.7-6.3 1.5-15 3-20.8 5.3-26.5 10.5-.9.8-5.7 4.4-10.6 8-4.9 3.5-9 6.8-9.2 7.2-.2.4-.8.8-1.3.8s-2.2 1.2-3.8 2.6c-1.6 1.4-3.2 2.5-3.5 2.5-.3-.1-1.5.7-2.5 1.6-3.9 3.5-5.6 4.8-6 4.5-.2-.2-.7.1-1 .6-.5.9-5.6 4.9-13.7 10.7-1.6 1.1-3.6 2.7-4.5 3.7-1 .9-2 1.4-2.3 1.1-.3-.4-.6-.1-.6.5 0 .7-.6 1.2-1.4 1.2-.8 0-1.6.4-1.8.8-.2.5-5.9 5-12.8 10.1-6.9 5-13.7 10.3-15.3 11.6-1.5 1.4-2.9 2.5-3.2 2.5-.8 0-21 15.3-21.3 16.2-.2.4-.8.8-1.2.8-1.5 0-12 8.2-12 9.3 0 .6-.3.8-.6.4-.3-.3-1.1-.2-1.8.4-1.6 1.4-7.9 6.1-11 8.4-1.6 1.1-3.4 2.6-4.2 3.3-.8.7-1.4 1-1.4.5 0-.4-.4-.3-.8.3-1 1.6-10 8.4-11.1 8.4-.5 0-1.1.4-1.3.9-.7 1.8-13.5 10.7-17.8 12.3-2.5 1-5.8 2.3-7.5 2.9-1.6.7-3.2 1.3-3.5 1.4-.3.1-1.4.5-2.5 1-1.1.4-4.7 1.8-8 3.1-21.8 8.3-43.3 16.5-58 22.1-9.3 3.5-19.5 7.4-22.5 8.5-3 1.1-6.4 2.5-7.5 2.9-1.1.5-5.1 2-9 3.4-3.8 1.4-7.9 3-9 3.4-1.1.5-5.8 2.4-10.5 4.1-4.7 1.8-9.9 3.8-11.7 4.6-1.7.8-3.6 1.4-4.2 1.4-.6 0-1.9.4-2.9.9-2.3 1.2-14.9 6.2-16.7 6.7-.5.1-2.3.8-4 1.5-1.6.6-3.4 1.3-4 1.5-.9.2-33.7 12.8-39 14.9-1.1.4-2.4.9-3 1.1-.5.1-2.3.8-4 1.5-1.6.6-3.9 1.4-4.9 1.6-1.1.2-2.4.7-3 1.1-.6.5-3.3 1.7-6.1 2.7-2.7.9-6.3 2.3-8 3-8.4 3.5-13.9 5.5-15.1 5.5-.8 0-1.4.5-1.4 1 0 .6-.3.9-.7.9-1.9-.3-3.3.2-3.3 1.2 0 .5.3.8.8.5.4-.2 4.5-.7 9.2-1.1 4.7-.3 10.8-.8 13.5-1.1 2.8-.2 7.7-.7 11-1 3.3-.3 8.3-.7 11-.9 7.4-.4 21.5-1.6 25.5-2.1 1.9-.2 7.5-.6 12.3-.9 4.8-.2 10-.7 11.5-.9 1.5-.2 7.2-.8 12.7-1.1 9.8-.7 11.8-.9 24-1.9 3.3-.3 8.9-.8 12.5-1.1 3.6-.2 10.6-.8 15.5-1.2 5-.4 11.1-.7 13.7-.8 2.7 0 4.8-.2 4.8-.5s2.4-.7 5.3-.8c2.8-.1 7.7-.4 10.7-.7 3-.2 8.7-.7 12.5-1 3.9-.3 9.4-.7 12.3-1 2.8-.2 5.7-.7 6.4-1.1.7-.5.8-.3.3.6-.5.9-.4 1.1.4.6 1.2-.8 12.7-1.9 19.4-1.9 2 0 3.7-.3 3.7-.6s2.4-.6 5.3-.7c2.8 0 8.8-.3 13.2-.7 4.4-.4 10.7-.9 14-1.2 9.9-.7 19.7-1.5 25-2 2.8-.3 8.2-.7 12-1 3.9-.3 9.7-.8 13-1 3.3-.3 8.5-.7 11.5-1 11.5-.9 20.6-1.6 24.5-2 2.2-.2 8.1-.7 13-1 5-.4 10.6-.8 12.5-1 6.3-.6 24.9-2.1 37-3 12.6-1 16.2-1.3 25-2.1 4.7-.4 10.1-.8 12.1-.8 4.4-.1 6.6-1.8 7.5-5.9.3-1.7 1.3-4.1 2-5.2.7-1.1 1.3-2.2 1.3-2.5 0-.3.5-1.9 1.1-3.5 2.4-6.6 5.2-14.1 6.1-16 .5-1.1 1.7-4.3 2.7-7 1-2.8 2.3-5.9 2.7-7 .5-1.1.9-2.2.9-2.5.5-1.9 6.1-15.7 6.9-16.7.5-.7.6-1.7.2-2.3-.3-.5-.2-1 .2-1 .5 0 1.7-2.4 2.7-5.3 1-2.8 2.3-6.3 2.9-7.7.6-1.4 1.1-2.7 1.2-3 .1-.3.5-1.4 1-2.5.4-1.1 3.2-8.3 6.2-16 2.9-7.7 5.7-14.9 6.2-16 .5-1.1 1.5-3.6 2.1-5.5.7-1.9 1.9-4.9 2.5-6.5.7-1.7 1.8-4.6 2.6-6.5.7-1.9 1.7-4 2.2-4.7.9-1.2 17.5-1.2 99.7.2 15.7.2 47.9.7 71.5 1 23.7.4 53.1.8 65.5 1.1 25.6.5 23.6.5 29.3.5 3.5 0 20.2.2 50.7.8 4.7.1 6.1.6 9.5 3.5 3.4 2.9 17.8 14.9 34.2 28.3 2.1 1.7 4.9 4 6.3 5.2 1.4 1.1 3 2.4 3.5 2.8 2.7 2.2 12.2 10 14.2 11.8 4.2 3.8 5.2 4.5 6.3 4.5.6 0 .8.4.5 1-.3.5 0 1 .7 1 .8 0 2 .8 2.9 1.7.8 1 3.2 3.1 5.4 4.8 2.1 1.6 5.1 4.1 6.6 5.5 1.5 1.4 3.7 3.2 4.9 4 1.2.8 3.4 2.5 4.8 3.8 1.5 1.3 4.3 3.5 6.2 5 1.9 1.5 4.2 3.4 5 4.3 1.6 1.7 16 9.1 16 8.3 0-.3 1.3.4 2.9 1.5 1.6 1.2 3.6 2.1 4.5 2.1.9 0 1.6.5 1.6 1.2 0 .6.3.9.6.5.3-.3 3.2.8 6.4 2.4 3.1 1.6 6.3 2.9 6.9 2.9.6 0 1.1.4 1.1 1 0 .5.4 1 .9 1s4.9 1.9 9.8 4.2c4.8 2.3 9 4.2 9.3 4.3.3 0 3.4 1.5 7 3.2 3.6 1.7 10.6 5 15.5 7.3 5 2.3 15 7.1 22.3 10.6 7.3 3.5 13.7 6.4 14.2 6.4.6 0 1 .5 1 1 0 .6.3.9.8.8.4-.1 3.2.9 6.2 2.4 16.1 7.7 21.6 10.2 23 10.4 6.6 1.1 8.9 1.6 11.4 2.4 1.6.6 4.1 1 5.6 1s3 .3 3.4.7c.4.4 1.9.9 3.4 1.1 1.5.2 12.9 2.5 25.3 5.2 27 5.9 27.9 6 30.4 6.5 6.8 1.3 8.1 1.6 9.5 2.1.8.4 2.9.8 4.5 1 1.7.2 7.1 1.3 12 2.4 5 1.1 10.1 2.3 11.5 2.5 1.4.3 5.4 1.1 9 1.9 11.8 2.5 22.5 4.8 24.5 5.3 1.1.2 3.1.6 4.5.9 1.4.3 4.1.9 6 1.4 1.9.5 5.2 1.1 7.4 1.4 2.1.4 4.2.8 4.6 1.1.4.2 2.2.7 4.1.9 1.9.3 5.4 1 7.9 1.7 2.5.6 5.4 1.2 6.5 1.3 1.1.2 4.3 1.3 7 2.5 8.1 3.6 11 4.8 11.5 4.8.3 0 1.6.6 3 1.3 1.4.8 2.7 1.5 3 1.6.3 0 2.3.9 4.5 1.8 2.2 1 5.4 2.4 7 3.1 6.1 2.6 10.1 4.3 14.5 6.3 7.6 3.4 12.5 5.5 13 5.7 1.1.4 6.3 2.6 10.3 4.4 2.3 1 9.2 4 15.2 6.5 6.1 2.6 11.9 5.1 13 5.6 2.1 1 39.3 17.1 45.5 19.7 1.9.8 4.7 2.1 6.2 2.9 1.4.8 3.3 1.4 4.2 1.4.9 0 1.6.5 1.6 1.2 0 .6.3.9.6.5.4-.3 1.9 0 3.5.9 1.6.8 3.1 1.4 3.4 1.4.3-.1 1.8.6 3.3 1.4 3 1.6 8.4 4 18.2 8.1 3.6 1.5 7.1 3.2 7.8 3.7.6.6 1.2.7 1.2.3 0-.4.6-.2 1.3.4.8.6 1.6.9 1.9.6.3-.3 1.1.1 1.8 1 .7.8 1.8 1.5 2.5 1.5s3.9 1.2 7.1 2.6c3.3 1.4 7.5 3.3 9.4 4.1 1.9.8 5.3 2.3 7.5 3.3 8.2 3.8 13.8 6 15 6 .8 0 1.5.5 1.7 1.1.2.5 1 1.1 1.8 1.3 1.6.3 5.1 1.7 11 4.3 5.2 2.3 8.9 3.9 14.5 6.3 10.1 4.4 12.1 5.2 14.7 6.6 1.5.8 3 1.5 3.3 1.4.5 0 4.1 1.4 11.5 4.7 2.5 1.1 7.4 3.3 11 4.8 3.6 1.5 8.8 3.7 11.5 5 2.8 1.2 7.7 3.3 11 4.6 3.3 1.3 6.2 2.7 6.3 3.1.2.5 1.2.8 2.3.8 1 0 1.9.5 1.9 1.2 0 .6.3.9.6.6.4-.5 11.7 4.1 29.4 11.9 2.5 1.1 7.4 3.3 11 4.8 3.6 1.5 8.3 3.6 10.5 4.5 2.2 1 10.5 4.6 18.5 8 8 3.4 16.3 7 18.5 8 2.2 1 12.1 5.3 22 9.5 19.6 8.4 24.2 10.4 32.5 14.2 3 1.4 6 2.6 6.5 2.8.6.1 3 1.1 5.5 2.2 9.7 4.4 14.5 6.6 15.3 7 .4.2.7.2.7-.1 0-.3-2.1-2-4.7-3.7-2.7-1.8-4.9-3.6-5.1-4.1-.2-.4-1.3-.8-2.3-.8-1.1 0-1.7-.5-1.4-1 .3-.6.1-1-.5-1s-6.5-3.6-13-8.1c-6.6-4.4-12.2-8-12.6-7.9-.4.1-1-.3-1.3-.8-.3-.6-6.2-4.7-13.1-9.3-6.9-4.6-12.6-8.7-12.8-9.1-.2-.4-1-.8-1.7-.8-.8 0-2-.6-2.7-1.3-.7-.7-6.2-4.5-12.3-8.5-6-3.9-11.5-7.5-12-8-.6-.5-2.4-1.7-4-2.8-1.7-1-3.2-2.1-3.5-2.5-.3-.3-.9-.8-1.5-1-.5-.2-10.4-6.7-21.8-14.4-11.5-7.7-21.7-14.5-22.8-15.1-1-.6-2.7-1.8-3.7-2.7-1-1-2.2-1.7-2.6-1.7-.7 0-6.1-3.6-8.1-5.5-.7-.6-2.8-1.9-4.8-3s-3.7-2.3-3.7-2.7c0-.5-.6-.8-1.4-.8-.8 0-1.6-.3-1.8-.8-.3-.6-24-16.7-29-19.7-1-.5-6.6-4.3-12.4-8.3-5.9-3.9-11-7.2-11.5-7.2s-.9-.5-.9-1c0-.6-.6-1-1.4-1-.8 0-1.6-.4-1.8-.8-.4-1.1-9.7-7.2-10.9-7.2-.5 0-.9-.5-.9-1 0-.6-.6-1-1.4-1-.8 0-1.6-.3-1.8-.8-.4-1-27.8-19.2-28.9-19.2-.5 0-.9-.5-.9-1 0-.6-.5-1-1.1-1-.6 0-1.7-.6-2.4-1.3-2.7-2.3-4.1-3.4-5.1-3.8-2.1-.8-112.9-75.3-113.2-76.1-.2-.4-1.2-.8-2.2-.8-1 0-2-.4-2.2-.9-.4-1.3-27.5-19.1-29.6-19.5-.9-.1-2.4-.5-3.2-.8-.8-.3-5.1-1.5-9.5-2.7-4.4-1.2-14.7-4-23-6.2-8.2-2.2-15.7-4.2-16.5-4.4-.8-.2-4.5-1.3-8.2-2.4-3.8-1.1-6.8-1.7-6.8-1.5 0 .3-.8 0-1.8-.5-1.8-1-5.4-1.9-9.9-2.6-1.2-.2-2.7-.6-3.2-1-.6-.3-1.9-.8-2.8-1-1.7-.3-7.5-1.8-19.3-5.1-3-.9-6.2-1.7-7-1.9-1.4-.3-5.4-1.4-17.5-4.7-2.2-.5-4.7-1.3-5.5-1.6-.8-.3-2.4-.7-3.5-.9-3.5-.8-5-1.1-5.5-1.4-.3-.1-.9-.3-1.5-.4-.5-.2-1.2-.4-1.5-.5-.3-.1-1.2-.3-2-.5s-3.3-.9-5.5-1.5-4.7-1.2-5.5-1.4c-.8-.2-5.5-1.5-10.5-2.9-4.9-1.4-10.1-2.8-11.5-3.1-1.4-.3-7.2-1.9-13-3.6-5.8-1.7-11.4-3.2-12.5-3.3-1.1-.2-2.6-.6-3.3-1-.7-.5-2.6-.9-4.2-.9-1.7-.1-3-.5-3-1 0-.4-1-.8-2.2-.8-1.9 0-4.8-.8-10.8-2.8-.8-.3-2.2-.6-3.1-.8-.8-.2-4.2-1.1-7.5-1.9-3.2-.9-6.6-1.8-7.4-2-.8-.2-7.3-2-14.5-4-7.1-2-14.3-3.8-15.8-4.1-1.6-.3-4.6-1.2-6.7-1.9-2.1-.7-4.1-1.1-4.4-.8-.3.4-.6.2-.6-.4 0-.5-.6-1-1.2-1.1-2.8-.2-6.9-1.2-21.8-5.2-14-3.8-16-4.6-20-8.2-7.2-6.4-24.2-21.8-33.6-30.3-1.2-1.2-5.3-4.8-8.9-8-3.7-3.3-8.9-8.1-11.6-10.6-2.7-2.6-4.9-4.5-4.9-4.3 0 .3-8.1-7.1-16.2-14.7-2.1-2-3.8-3.5-3.8-3.4 0 .2-1.5-1.1-3.3-2.8-4.9-4.7-20.5-18.8-25.9-23.5-2.6-2.2-5.8-5.1-7.1-6.4-1.3-1.2-6-5.5-10.3-9.3-10.8-9.6-19.4-17.5-22.7-20.8-1.5-1.5-2.9-2.7-3.2-2.7-.3 0-1.3-.8-2.3-1.8-2.6-2.5-12.6-11.6-21.1-19.2-4-3.6-9-8.1-11.1-10-2.1-1.9-7.1-6.4-11.1-10-4-3.6-8.8-8-10.7-9.8-1.8-1.7-3.5-3.2-3.7-3.2-.2 0-1.9-1.5-3.7-3.3-1.9-1.7-6.1-5.6-9.4-8.5-3.2-2.9-9.5-8.6-13.8-12.5-4.4-4-9.5-8.6-11.3-10.2-1.9-1.7-5.6-5-8.3-7.5-2.6-2.5-6.3-5.8-8.1-7.4-2.9-2.6-12.6-11.3-27.3-24.6-4.7-4.2-6.4-5.7-15.1-13.5-3.8-3.3-8.2-7.4-10-9-5.1-4.7-20.6-18.8-22.9-20.8-1.2-1-4.5-4-7.4-6.5-5.9-5.2-6.8-5.8-26.7-16.2-23.5-12.2-28.9-15.2-30.2-16.2-.7-.6-1.3-.8-1.3-.4 0 .3-1.7-.4-3.7-1.7-2.1-1.3-4.8-2.7-6-3.1-1.3-.4-2.3-1.2-2.3-1.8 0-.6-.2-.9-.5-.6-.3.3-5.1-1.9-10.6-4.8-5.6-3-10.4-5.4-10.9-5.4-.4 0-1.3-.7-2-1.5-.7-.9-1.5-1.3-1.8-1.1-.2.3-2.1-.5-4.1-1.7-2-1.2-5.4-3.1-7.6-4.2-2.2-1.1-4.3-2.4-4.7-3-.4-.5-.8-.6-.8-.2 0 .5-1.5 0-3.2-1.1-1.8-1.1-5.9-3.4-9.1-5-3.1-1.7-6.4-3.5-7.2-4.2-.8-.7-1.5-.9-1.5-.5s-.6.3-1.2-.3c-.7-.5-7.1-4-14.2-7.7s-16.1-8.4-20-10.4c-3.9-2.1-13.8-7.4-22.1-11.7-8.2-4.3-17.2-9-20-10.5-2.7-1.5-9.5-5-15-7.8-5.5-2.9-14.7-7.7-20.5-10.7-5.8-3.1-17.5-9.2-26-13.6-27.5-14.3-23.9-11.8-33.9-24.3-3.4-4.4-7.6-9.6-9.2-11.5-1.6-1.9-3.3-4-3.7-4.5-6.7-8.8-37.8-47.1-38.4-47.3-.4-.2-.8-1-.8-1.7s-.4-1.5-.8-1.7c-.4-.2-3.5-3.7-6.7-7.8-3.3-4.1-6.8-8.4-7.8-9.5-1-1.1-4.8-5.8-8.5-10.5s-7.5-9.4-8.4-10.5c-1-1.1-2.3-2.8-3-3.8-1.2-1.6-2.3-.9-12.3 7.4z"/></svg>