<svg height="512" viewBox="0 0 48 60" width="512" xmlns="http://www.w3.org/2000/svg"><g id="Page-1" fill="none" fill-rule="evenodd"><g id="001---Guage" fill="rgb(0,0,0)" fill-rule="nonzero" transform="translate(-1 -1)"><path id="Shape" d="m20 48.472v2.528h-3c-1.6568542 0-3 1.3431458-3 3v4c0 1.6568542 1.3431458 3 3 3h16c1.6568542 0 3-1.3431458 3-3v-4c0-1.6568542-1.3431458-3-3-3h-3v-2.528c12.0121849-2.5586814 20.1544011-13.7731034 18.8679842-25.9872169-1.2864168-12.2141135-11.5863134-21.48617229-23.8679842-21.48617229s-22.58156737 9.27205879-23.86798421 21.48617229c-1.28641684 12.2141135 6.85579932 23.4285355 18.86798421 25.9872169zm14 5.528v1h-2c-.5522847 0-1 .4477153-1 1s.4477153 1 1 1h2v1c0 .5522847-.4477153 1-1 1h-16c-.5522847 0-1-.4477153-1-1v-1h12c.5522847 0 1-.4477153 1-1s-.4477153-1-1-1h-12v-1c0-.5522847.4477153-1 1-1h16c.5522847 0 1 .4477153 1 1zm-6-3h-6v-2.194c1.9916365.2586653 4.0083635.2586653 6 0zm-3-48c12.1502645 0 22 9.8497355 22 22s-9.8497355 22-22 22-22-9.8497355-22-22c.01377716-12.1445532 9.8554468-21.98622284 22-22z"/><path id="Shape" d="m25 45c11.045695 0 20-8.954305 20-20s-8.954305-20-20-20-20 8.954305-20 20c.01267466 11.0404407 8.9595593 19.9873253 20 20zm0-38c9.9411255 0 18 8.0588745 18 18s-8.0588745 18-18 18-18-8.0588745-18-18c.01157214-9.9363282 8.0636718-17.98842786 18-18z"/><path id="Shape" d="m13.375 32.866 2.6-1.5c.4771802-.277177.6396341-.8885048.363-1.366-2.4251071-4.2028276-1.4830833-9.5401243 2.2342604-12.6588198 3.7173436-3.1186954 9.1371356-3.1186954 12.8544792 0 3.7173437 3.1186955 4.6593675 8.4559922 2.2342604 12.6588198-.1333206.2297373-.1697631.503077-.1012879.7597183.0684752.2566412.2362414.4754955.4662879.6082817l2.6 1.5 1-1.732-1.767-1.02c.6046663-1.2962199.9724646-2.690196 1.086-4.116h2.055c.5522847 0 1-.4477153 1-1s-.4477153-1-1-1h-2.049c-.1164326-1.4246979-.4890734-2.8166806-1.1-4.109l1.776-1.025c.4742136-.2780058.6351286-.886647.3602745-1.3626943-.274854-.4760473-.8824145-.640996-1.3602745-.3693057l-1.774 1.024c-.8098289-1.1791705-1.8298295-2.1991711-3.009-3.009l1.024-1.774c.1814844-.3095704.1831833-.6926495.0044519-1.0038174-.1787315-.311168-.5104885-.5027136-.8693336-.5019247s-.6897567.1937913-.8671183.5057421l-1.025 1.776c-1.2928084-.6118495-2.6854948-.9851748-4.111-1.102v-2.049c0-.5522847-.4477153-1-1-1s-1 .4477153-1 1v2.049c-1.4246979.1164326-2.8166806.4890734-4.109 1.1l-1.025-1.776c-.2780058-.4742136-.886647-.6351286-1.3626943-.3602745-.4760473.274854-.640996.8824145-.3693057 1.3602745l1.024 1.774c-1.1791705.8098289-2.1991711 1.8298295-3.009 3.009l-1.774-1.024c-.47786-.2716903-1.0854205-.1067416-1.3602745.3693057-.2748541.4760473-.1139391 1.0846885.3602745 1.3626943l1.776 1.025c-.6118495 1.2928084-.9851748 2.6854948-1.102 4.111h-2.049c-.5522847 0-1 .4477153-1 1s.4477153 1 1 1h2.055c.1146779 1.4252001.4831368 2.8184357 1.088 4.114l-1.768 1.02c-.3119508.1773616-.5049532.5082732-.5057421.8671183s.1907567.6906021.5019247.8693336c.3111679.1787314.694247.1770325 1.0038174-.0044519z"/><path id="Shape" d="m28.229 32.374c.629398-.1895264 1.137445-.6566791 1.379-1.268.214555-.5416362.1696141-1.1516541-.122-1.656l-1.235-2.136c.8735497-1.2165807.9918113-2.8200322.3061995-4.151608s-2.0594883-2.166744-3.5571995-2.162392c-.068 0-.131.017-.2.02l-.939-3c-.1071797-.3408314-.3880491-.5985929-.7368076-.6761883s-.7124213.036764-.9540001.3c-.2415787.263236-.324372.6353569-.2171923.9761883l.937 3c-1.3046924.8024815-2.0322186 2.2832121-1.8701694 3.8063467.1620492 1.5231345 1.1848388 2.8176456 2.6291694 3.3276533l.2 2.459c.0471394.5793467.3560671 1.1055181.839 1.429.351529.2368629.7661203.3626339 1.19.361.2287206.0004144.4562238-.0332898.675-.1zm-5.229-7.374c0-1.1045695.8954305-2 2-2s2 .8954305 2 2-.8954305 2-2 2-2-.8954305-2-2zm2.844 6.016-.172-2.084c.3551446-.0608317.7003284-.1698371 1.026-.324l1.045 1.774c-.022909.0422977-.0630395.0725779-.11.083l-1.668.519c-.065.016-.11.016-.121.032z"/><path id="Shape" d="m21 34c-1.6568542 0-3 1.3431458-3 3s1.3431458 3 3 3 3-1.3431458 3-3-1.3431458-3-3-3zm0 4c-.5522847 0-1-.4477153-1-1s.4477153-1 1-1 1 .4477153 1 1-.4477153 1-1 1z"/><path id="Shape" d="m29 34c-1.6568542 0-3 1.3431458-3 3s1.3431458 3 3 3 3-1.3431458 3-3-1.3431458-3-3-3zm0 4c-.5522847 0-1-.4477153-1-1s.4477153-1 1-1 1 .4477153 1 1-.4477153 1-1 1z"/></g></g></svg>