<svg height="512" viewBox="0 0 60 60" width="512" xmlns="http://www.w3.org/2000/svg"><g id="Page-1" fill="none" fill-rule="evenodd"><g id="021---Pressure-Valve" fill="rgb(0,0,0)" fill-rule="nonzero" transform="translate(0 -1)"><path id="Shape" d="m58 30h-4c-1.1045695 0-2 .8954305-2 2h-3.556c-.3509543.0058649-.6776418-.1785184-.854-.482-2.6070801-4.8404593-7.0918013-8.3942392-12.4-9.826 4.4461503-2.3816092 6.7028839-7.4819095 5.4751528-12.37404517-1.2277311-4.89213563-5.6253135-8.32246781-10.6691528-8.32246781s-9.4414217 3.43033218-10.6691528 8.32246781c-1.2277311 4.89213567 1.0290025 9.99243597 5.4751528 12.37404517-5.3081987 1.4317608-9.7929199 4.9855407-12.4 9.826-.1763582.3034816-.5030457.4878649-.854.482h-3.548c0-1.1045695-.8954305-2-2-2h-4c-1.1045695 0-2 .8954305-2 2v18c0 1.1045695.8954305 2 2 2h4c1.1045695 0 2-.8954305 2-2h3.556c.3509543-.0058649.6776418.1785184.854.482 3.4798293 6.4768916 10.2374945 10.5174485 17.59 10.5174485s14.1101707-4.0405569 17.59-10.5174485c.1763582-.3034816.5030457-.4878649.854-.482h3.556c0 1.1045695.8954305 2 2 2h4c1.1045695 0 2-.8954305 2-2v-18c0-1.1045695-.8954305-2-2-2zm-37-18c0-4.97056275 4.0294373-9 9-9s9 4.02943725 9 9c0 4.9705627-4.0294373 9-9 9-4.9680501-.006061-8.993939-4.0319499-9-9zm-15 38h-4v-18h4zm42.444-2c-1.0868169-.0090983-2.0908466.5793384-2.614 1.532-3.1302318 5.8306379-9.2122444 9.4685184-15.83 9.4685184s-12.6997682-3.6378805-15.83-9.4685184c-.5231534-.9526616-1.5271831-1.5410983-2.614-1.532h-3.556v-14h3.556c1.0868169.0090983 2.0908466-.5793384 2.614-1.532 3.1302318-5.8306379 9.2122444-9.4685184 15.83-9.4685184s12.6997682 3.6378805 15.83 9.4685184c.5231534.9526616 1.5271831 1.5410983 2.614 1.532h3.556v14zm9.556 2h-4v-18h4z"/><path id="Shape" d="m43.248 36.559c-1.4058366-4.1458271-4.6611729-7.4011634-8.807-8.807-.8377979-1.6861306-2.5581984-2.7523736-4.441-2.7523736s-3.6032021 1.066243-4.441 2.7523736c-4.1458271 1.4058366-7.4011634 4.6611729-8.807 8.807-1.6861306.8377979-2.7523736 2.5581984-2.7523736 4.441s1.066243 3.6032021 2.7523736 4.441c1.4058366 4.1458271 4.6611729 7.4011634 8.807 8.807.8377979 1.6861306 2.5581984 2.7523736 4.441 2.7523736s3.6032021-1.066243 4.441-2.7523736c4.1458271-1.4058366 7.4011634-4.6611729 8.807-8.807 1.6861306-.8377979 2.7523736-2.5581984 2.7523736-4.441s-1.066243-3.6032021-2.7523736-4.441zm-2.348-.549c-.6877412.0145937-1.3648578.1726329-1.988.464-.9592375-1.8882388-2.4937612-3.4227625-4.382-4.382.2905294-.6246698.4472163-1.3031921.46-1.992 2.6082286 1.2072281 4.7027719 3.3017714 5.91 5.91zm-7.6 12.263c-.6497572-.5870623-1.4432753-.9917565-2.3-1.173v-3.284c.846935-.3025307 1.5134693-.969065 1.816-1.816h3.284c.1809555.8566226.5852997 1.6501309 1.172 2.3-.7991077 1.7616953-2.2105059 3.1734488-3.972 3.973zm-6.6 0c-1.7618694-.7993536-3.1736464-2.2111306-3.973-3.973.5870623-.6497572.9917565-1.4432753 1.173-2.3h3.285c.3023158.8467209.9684458 1.5132179 1.815 1.816v3.284c-.8567247.1812435-1.6502428.5859377-2.3 1.173zm0-14.546c.6497572.5870623 1.4432753.9917565 2.3 1.173v3.285c-.8467209.3023158-1.5132179.9684458-1.816 1.815h-3.284c-.1809555-.8566226-.5852997-1.6501309-1.172-2.3.7991077-1.7616953 2.2105059-3.1734488 3.972-3.973zm6.6 0c1.7618694.7993536 3.1736464 2.2111306 3.973 3.973-.5870623.6497572-.9917565 1.4432753-1.173 2.3h-3.284c-.3025307-.846935-.969065-1.5134693-1.816-1.816v-3.284c.8567247-.1812435 1.6502428-.5859377 2.3-1.173zm-3.3 8.273c-.5522847 0-1-.4477153-1-1s.4477153-1 1-1 1 .4477153 1 1-.4477153 1-1 1zm0-15c1.6568542 0 3 1.3431458 3 3s-1.3431458 3-3 3-3-1.3431458-3-3 1.3431458-3 3-3zm-4.99 3.1c.0145937.6877412.1726329 1.3648578.464 1.988-1.8882388.9592375-3.4227625 2.4937612-4.382 4.382-.6246698-.2905294-1.3031921-.4472163-1.992-.46 1.2072281-2.6082286 3.3017714-4.7027719 5.91-5.91zm-6.01 7.9c1.6568542 0 3 1.3431458 3 3s-1.3431458 3-3 3-3-1.3431458-3-3 1.3431458-3 3-3zm.1 7.99c.6877412-.0145937 1.3648578-.1726329 1.988-.464.9592375 1.8882388 2.4937612 3.4227625 4.382 4.382-.2905294.6246698-.4472163 1.3031921-.46 1.992-2.6082286-1.2072281-4.7027719-3.3017714-5.91-5.91zm10.9 9.01c-1.6568542 0-3-1.3431458-3-3s1.3431458-3 3-3 3 1.3431458 3 3-1.3431458 3-3 3zm4.99-3.1c-.0145937-.6877412-.1726329-1.3648578-.464-1.988 1.8882388-.9592375 3.4227625-2.4937612 4.382-4.382.6231422.2913671 1.3002588.4494063 1.988.464-1.2070054 2.6060483-3.2999517 4.6989946-5.906 5.906zm6.01-7.9c-1.6568542 0-3-1.3431458-3-3s1.3431458-3 3-3 3 1.3431458 3 3-1.3431458 3-3 3z"/><path id="Shape" d="m37.121 9.879c-1.9381792-1.8037784-4.4738038-2.82892419-7.121-2.879-2.6471962.05007581-5.1828208 1.0752216-7.121 2.879-.3903819.3904999-.3903819 1.0235001 0 1.414l2.828 2.828c.3904999.3903819 1.0235001.3903819 1.414 0 .8063909-.6715593 1.8081008-1.0647375 2.856-1.121 1.0630312.0474982 2.0814047.4411522 2.9 1.121.3904999.3903819 1.0235001.3903819 1.414 0l2.828-2.828c.3909348-.3899475.3918302-1.0229482.002-1.414zm-3.61 2.2c-1.0691862-.6545341-2.2875016-1.0258794-3.54-1.079-1.2330428.0564729-2.4313813.4260925-3.482 1.074l-1.438-1.437c1.4493151-1.02736775 3.1729262-1.5974933 4.949-1.637 1.7760738.0395067 3.4996849.60963225 4.949 1.637z"/></g></g></svg>