<svg height="512" viewBox="0 0 60 51" width="512" xmlns="http://www.w3.org/2000/svg"><g id="Page-1" fill="none" fill-rule="evenodd"><g id="012---Pipe" fill="rgb(0,0,0)" fill-rule="nonzero"><path id="Shape" d="m57 29h-11.856l-17.744-17.745c.330117-.3898676.3061805-.9677208-.0550494-1.32895064-.3612298-.36122982-.939083-.38516634-1.3289506-.05504936l-4.916-4.914c.5433766-1.14168486.3126078-2.50150104-.577-3.4-1.1714996-1.17114581-3.0705004-1.17114581-4.242 0l-12.729 12.724c-1.03909349 1.0285724-1.18229356 2.6576038-.33858246 3.8516842.84371111 1.1940804 2.42702195 1.603197 3.74358246.9673158l4.914 4.914c-.3255125.3910278-.3008441.9653251.057 1.327.1874927.1875494.4418052.2929434.707.293.2276898-.0048581.44671-.0882271.62-.236l3.6 3.6h-2.855c0-.5522847-.4477153-1-1-1s-1 .4477153-1 1h-6.184c-.48497332-1.3769108-1.89253912-2.2030823-3.33116764-1.9552305-1.43862852.2478517-2.4885802 1.4974125-2.48483236 2.9572305v18c-.0027654 1.4594373 1.04748812 2.7080809 2.48582199 2.9553873 1.43833386.2473064 2.84532568-.5788398 3.33017801-1.9553873h6.184c0 .5522847.4477153 1 1 1s1-.4477153 1-1h43c1.6568542 0 3-1.3431458 3-3v-14c0-1.6568542-1.3431458-3-3-3zm-52.033-11.891c-.39038194-.3904999-.39038194-1.0235001 0-1.414l12.733-12.728c.2510745-.25995658.6228779-.3642126.9725073-.27269716.3496295.09151544.6226744.3645604.7141899.71418984.0915154.34962943-.0127406.72143285-.2726972.97250732l-12.733 12.728c-.39049985.3903819-1.02350015.3903819-1.414 0zm14.853-10.609 4.766 4.766-11.316 11.32-4.77-4.766zm-16.82 42.5c-.55228475 0-1-.4477153-1-1v-18c0-.5522847.44771525-1 1-1s1 .4477153 1 1v18c0 .5522847-.44771525 1-1 1zm3-2v-16h6v16zm52-1c0 .5522847-.4477153 1-1 1h-43v-16h2.856c.8087918-.0001727 1.5378681-.487455 1.847356-1.2346909.3094878-.7472359.1384598-1.6073206-.433356-2.1793091l-3.586-3.586 11.316-11.316 17.73 17.73c.3741062.3764121.8833028.5874371 1.414.586h11.856c.5522847 0 1 .4477153 1 1z"/></g></g></svg>