<svg height="512" viewBox="0 0 60 60" width="512" xmlns="http://www.w3.org/2000/svg"><g id="Page-1" fill="none" fill-rule="evenodd"><g id="046---Elbow-Pipe" fill="rgb(0,0,0)" fill-rule="nonzero"><path id="Shape" d="m44.145 17.782c.2388313.2721264.6061032.3938994.9602048.3183665.3541016-.075533.6397162-.3365724.7467181-.682468.1070018-.3458956.0186754-.7226127-.2309229-.9848985-6.0645927-6.63294712-14.6335066-10.41769284-23.621-10.433h-1c-.5522847 0-1 .44771525-1 1s.4477153 1 1 1h1c8.4260467.01453582 16.4595589 3.563139 22.145 9.782z"/><path id="Shape" d="m17 6h-2c-.5522847 0-1 .44771525-1 1s.4477153 1 1 1h2c.5522847 0 1-.44771525 1-1s-.4477153-1-1-1z"/><path id="Shape" d="m58 48v-10c-.0220445-19.8731127-16.1268873-35.97795548-36-36h-10c0-1.1045695-.8954305-2-2-2h-8c-.53043298 0-1.0391408.21071368-1.41421356.58578644s-.58578644.88378058-.58578644 1.41421356v28c0 1.1045695.8954305 2 2 2h8c1.1045695 0 2-.8954305 2-2h10c4.4162219.0049599 7.9950401 3.5837781 8 8v10c-1.1045695 0-2 .8954305-2 2v8c0 1.1045695.8954305 2 2 2h28c1.1045695 0 2-.8954305 2-2v-8c0-1.1045695-.8954305-2-2-2zm-48-18h-8v-28h8zm12-2h-10v-24h10c18.7690002.02094203 33.979058 15.2309998 34 34v10h-24v-10c-.0060624-5.5203344-4.4796656-9.9939376-10-10zm36 30h-28v-8h28z"/></g></g></svg>