<svg height="512" viewBox="0 0 60 60" width="512" xmlns="http://www.w3.org/2000/svg"><g id="Page-1" fill="none" fill-rule="evenodd"><g id="022---Stopcock" fill="rgb(0,0,0)" fill-rule="nonzero" transform="translate(0 -1)"><path id="Shape" d="m57 41h-4c-1.2565257.004919-2.3768557.7923828-2.807 1.973-2.7108518-.7706751-5.4908775-1.2730894-8.3-1.5-.5142742-.0488237-.9054306-.483442-.9-1v-1.473c1.1045695 0 2-.8954305 2-2v-4c0-1.1045695-.8954305-2-2-2h-5.993v-10.278c.6167513-.3544126.997855-1.0106732 1-1.722v-4c0-1.1045695-.8954305-2-2-2h-1v-4h11c1.1045695 0 2-.8954305 2-2v-3c0-1.038-.836-3-4-3-1.3642285-.14192447-2.7027258.44321717-3.525 1.541-.1828668.28429278-.4969786.45696024-.835.459h-3.28c-.338377-.00170231-.65294-.17441094-.836-.459-.8211847-1.09859002-2.159889-1.68398825-3.524-1.541-1.3642285-.14192447-2.7027258.44321717-3.525 1.541-.1828668.28429278-.4969786.45696024-.835.459h-3.28c-.338377-.00170231-.65294-.17441094-.836-.459-.8211847-1.09859002-2.159889-1.68398825-3.524-1.541-3.164 0-4 1.962-4 3v3c0 1.1045695.8954305 2 2 2h11v4h-1c-1.1045695 0-2 .8954305-2 2v4c.002145.7113268.3832487 1.3675874 1 1.722v10.278h-6c-1.1045695 0-2 .8954305-2 2v4c0 1.1045695.8954305 2 2 2v1.48c.0056645.5148162-.3827094.9487536-.895 1-2.8091275.2268722-5.5891569.7292872-8.3 1.5-.42756723-1.1826906-1.54741333-1.9731702-2.805-1.98h-4c-1.65685425 0-3 1.3431458-3 3v14c0 1.6568542 1.34314575 3 3 3h4c1.25626966-.0047651 2.3765242-.7917768 2.807-1.972 4.411 1.342 10.881 1.972 20.193 1.972s15.781-.63 20.193-1.972c.4304758 1.1802232 1.5507303 1.9672349 2.807 1.972h4c1.6568542 0 3-1.3431458 3-3v-14c0-1.6568542-1.3431458-3-3-3zm-41-36.971c.011-.172.16-1.029 2-1.029.6853278-.08097701 1.3698943.15716515 1.857.646.5535681.84351311 1.4940654 1.3522759 2.503 1.354h3.28c1.0078701-.00273162 1.9470169-.51137354 2.5-1.354.4877885-.48971592 1.1736717-.72793126 1.86-.646.6853278-.08097701 1.3698943.15716515 1.857.646.5535681.84351311 1.4940654 1.3522759 2.503 1.354h3.28c1.0078701-.00273162 1.9470169-.51137354 2.5-1.354.4877885-.48971592 1.1736717-.72793126 1.86-.646 1.84 0 1.989.857 2 1v3h-28zm13 4.971h2v4h-2zm-3 6h8v4h-8zm1 6h6v10h-6zm-8 12h22v4h-22zm-11 25c0 .5522847-.44771525 1-1 1h-4c-.55228475 0-1-.4477153-1-1v-14c0-.5522847.44771525-1 1-1h4c.55228475 0 1 .4477153 1 1zm2-1.007v-11.985c2.7039967-.8077255 5.486375-1.3249797 8.3-1.543 1.535907-.1482484 2.7061048-1.441967 2.7-2.985v-1.48h18v1.48c-.0056799 1.5430547 1.1641635 2.8368148 2.7 2.986 2.8136401.2173018 5.5960592.7342284 8.3 1.542v11.985c-4.2 1.367-10.592 2.007-20 2.007s-15.8-.64-20-2.007zm48 1.007c0 .5522847-.4477153 1-1 1h-4c-.5522847 0-1-.4477153-1-1v-14c0-.5522847.4477153-1 1-1h4c.5522847 0 1 .4477153 1 1z"/><path id="Shape" d="m36 52h-12c-.5522847 0-1 .4477153-1 1s.4477153 1 1 1h12c.5522847 0 1-.4477153 1-1s-.4477153-1-1-1z"/><path id="Shape" d="m26 49h8c.5522847 0 1-.4477153 1-1s-.4477153-1-1-1h-8c-.5522847 0-1 .4477153-1 1s.4477153 1 1 1z"/></g></g></svg>