<svg height="512" viewBox="0 0 60 52" width="512" xmlns="http://www.w3.org/2000/svg"><g id="Page-1" fill="none" fill-rule="evenodd"><g id="009---Pipe" fill="rgb(0,0,0)" fill-rule="nonzero"><path id="Shape" d="m58 30h-6.184c-.4174114-1.1981296-1.5472421-2.0009455-2.816-2.0009455s-2.3985886.8028159-2.816 2.0009455h-5.184c-.5522847 0-1-.4477153-1-1v-7.184c1.1981296-.4174114 2.0009455-1.5472421 2.0009455-2.816s-.8028159-2.3985886-2.0009455-2.816v-10.368c1.3765475-.48485233 2.2026937-1.89184415 1.9553873-3.33017801-.2473064-1.43833387-1.49595-2.48858739-2.9553873-2.48582199h-18c-1.4594373-.0027654-2.7080809 1.04748812-2.9553873 2.48582199-.2473064 1.43833386.5788398 2.84532568 1.9553873 3.33017801v10.368c-1.1981296.4174114-2.0009455 1.5472421-2.0009455 2.816s.8028159 2.3985886 2.0009455 2.816v7.184c0 .5522847-.4477153 1-1 1h-5.184c-.4174114-1.1981296-1.5472421-2.0009455-2.816-2.0009455-1.26875793 0-2.39858863.8028159-2.816 2.0009455h-6.184c-1.1045695 0-2 .8954305-2 2v16c0 1.1045695.8954305 2 2 2h6.184c.41741137 1.1981296 1.54724207 2.0009455 2.816 2.0009455 1.2687579 0 2.3985886-.8028159 2.816-2.0009455h32.368c.4174114 1.1981296 1.5472421 2.0009455 2.816 2.0009455s2.3985886-.8028159 2.816-2.0009455h6.184c1.1045695 0 2-.8954305 2-2v-16c0-1.1045695-.8954305-2-2-2zm-20-14h-16v-10h16zm-17-14h18c.5522847 0 1 .44771525 1 1s-.4477153 1-1 1h-18c-.5522847 0-1-.44771525-1-1s.4477153-1 1-1zm0 16h18c.5522847 0 1 .4477153 1 1s-.4477153 1-1 1h-18c-.5522847 0-1-.4477153-1-1s.4477153-1 1-1zm1 11v-7h16v7c0 1.6568542 1.3431458 3 3 3h5v16h-32v-16h5c1.6568542 0 3-1.3431458 3-3zm-20 3h6v16h-6zm10 17c0 .5522847-.4477153 1-1 1s-1-.4477153-1-1v-18c0-.5522847.4477153-1 1-1s1 .4477153 1 1zm38 0c0 .5522847-.4477153 1-1 1s-1-.4477153-1-1v-18c0-.5522847.4477153-1 1-1s1 .4477153 1 1zm8-1h-6v-16h6z"/></g></g></svg>