<?xml version="1.0" encoding="iso-8859-1"?>
<!-- Generator: Adobe Illustrator 19.0.0, SVG Export Plug-In . SVG Version: 6.00 Build 0)  -->
<svg version="1.1" id="Capa_1" xmlns="http://www.w3.org/2000/svg" xmlns:xlink="http://www.w3.org/1999/xlink" x="0px" y="0px"
	 viewBox="0 0 480.001 480.001" style="enable-background:new 0 0 480.001 480.001;" xml:space="preserve">
<g>
	<g>
		<path d="M464.001,185.473V46.553c3.344-1.136,6.379-3.034,8.864-5.544c4.594-4.462,7.17-10.604,7.136-17.008
			c0-13.255-10.745-24-24-24h-128c-13.224-0.025-23.964,10.675-23.989,23.899c-0.019,10.174,6.393,19.249,15.989,22.629v138.944
			c-12.442,4.335-19.014,17.935-14.68,30.376c2.396,6.877,7.802,12.284,14.68,14.68v89.472c-0.026,22.08-17.92,39.974-40,40h-24
			c-22.08-0.026-39.974-17.92-40-40v-89.448c3.344-1.136,6.379-3.034,8.864-5.544c4.594-4.462,7.17-10.604,7.136-17.008
			c-0.042-10.134-6.445-19.15-16-22.528v-65.472c-0.066-57.41-46.59-103.934-104-104H46.529C42.135,3.528,28.463-3.022,15.99,1.371
			C6.394,4.751-0.019,13.826,0.001,24.001v128c-0.048,6.336,2.475,12.421,6.992,16.864c4.462,4.594,10.604,7.17,17.008,7.136
			c10.134-0.042,19.15-6.445,22.528-16h17.472c4.418,0,8,3.582,8,8v17.472c-12.442,4.335-19.014,17.935-14.68,30.376
			c2.396,6.877,7.802,12.284,14.68,14.68v113.472c0.084,75.076,60.924,135.916,136,136h120c75.076-0.084,135.916-60.924,136-136
			V230.553c3.344-1.136,6.379-3.034,8.864-5.544c4.594-4.462,7.17-10.604,7.136-17.008
			C479.959,197.866,473.555,188.851,464.001,185.473z M32.001,152.001c0,4.418-3.582,8-8,8c-2.156,0.007-4.218-0.879-5.696-2.448
			c-1.493-1.459-2.325-3.465-2.304-5.552v-128c0-4.418,3.582-8,8-8s8,3.582,8,8V152.001z M328.001,16.001h128c4.418,0,8,3.582,8,8
			c0.007,2.156-0.879,4.218-2.448,5.696c-1.459,1.493-3.465,2.325-5.552,2.304h-128c-4.418,0-8-3.582-8-8
			S323.582,16.001,328.001,16.001z M448.001,48.001v136h-112v-136H448.001z M64.001,144.001h-16v-112h64
			c48.577,0.057,87.943,39.423,88,88v64h-112v-16C88.001,154.746,77.255,144.001,64.001,144.001z M72.001,208.001
			c0-4.418,3.582-8,8-8h128c4.418,0,8,3.582,8,8c0.007,2.156-0.879,4.218-2.448,5.696c-1.459,1.493-3.465,2.325-5.552,2.304h-128
			C75.582,216.001,72.001,212.419,72.001,208.001z M448.001,344.001c-0.075,66.243-53.757,119.925-120,120h-120
			c-66.243-0.075-119.925-53.757-120-120v-112h112v88c0.035,30.913,25.087,55.965,56,56h24c30.913-0.035,55.965-25.087,56-56v-88
			h112V344.001z M461.553,213.697c-1.459,1.493-3.465,2.325-5.552,2.304h-128c-4.418,0-8-3.582-8-8s3.582-8,8-8h128
			c4.418,0,8,3.582,8,8C464.008,210.156,463.121,212.218,461.553,213.697z"/>
	</g>
</g>
<g>
</g>
<g>
</g>
<g>
</g>
<g>
</g>
<g>
</g>
<g>
</g>
<g>
</g>
<g>
</g>
<g>
</g>
<g>
</g>
<g>
</g>
<g>
</g>
<g>
</g>
<g>
</g>
<g>
</g>
</svg>
