<?xml version="1.0" encoding="iso-8859-1"?>
<!-- Generator: Adobe Illustrator 19.0.0, SVG Export Plug-In . SVG Version: 6.00 Build 0)  -->
<svg version="1.1" id="Capa_1" xmlns="http://www.w3.org/2000/svg" xmlns:xlink="http://www.w3.org/1999/xlink" x="0px" y="0px"
	 viewBox="0 0 480.088 480.088" style="enable-background:new 0 0 480.088 480.088;" xml:space="preserve">
<g>
	<g>
		<path d="M240.132,0C138.511-0.049,56.092,82.292,56.043,183.912c-0.035,73.827,44.06,140.527,112,169.416v38.76
			c0,4.418,3.582,8,8,8h16v72c0,4.418,3.582,8,8,8h80c4.418,0,8-3.582,8-8v-72h16c4.418,0,8-3.582,8-8v-38.76
			c68.088-28.615,112.275-95.384,112-169.24C424.092,82.468,341.752,0.049,240.132,0z M272.043,464.088h-64v-64h64V464.088z
			 M296.043,384.088h-112v-24.672c0.984,0.312,2,0.528,2.992,0.8c1.936,0.584,3.896,1.096,5.848,1.6
			c3.077,0.816,6.179,1.549,9.304,2.2c2.224,0.464,4.448,0.912,6.688,1.296c2.944,0.496,5.904,0.88,8.864,1.232
			c2.312,0.28,4.616,0.608,6.944,0.8c3.632,0.296,7.28,0.416,10.92,0.504c1.488,0,2.952,0.2,4.44,0.2s2.952-0.168,4.44-0.2
			c3.64-0.088,7.288-0.208,10.92-0.504c2.328-0.192,4.632-0.52,6.944-0.8c2.96-0.352,5.92-0.736,8.864-1.232
			c2.24-0.384,4.464-0.8,6.688-1.296c3.128-0.648,6.224-1.384,9.312-2.2c1.952-0.52,3.896-1.032,5.832-1.6
			c0.992-0.304,2.008-0.512,3-0.8L296.043,384.088z M301.139,340.632h-0.008c-4.856,1.904-9.808,3.568-14.816,4.992
			c-25.163,7.112-51.626,8.33-77.336,3.56c-10.256-1.895-20.309-4.759-30.024-8.552c-86.432-33.74-129.147-131.159-95.406-217.59
			S214.708-6.105,301.139,27.635c86.432,33.74,129.147,131.159,95.406,217.59C379.472,288.962,344.876,323.559,301.139,340.632z"/>
	</g>
</g>
<g>
	<g>
		<path d="M358.051,116.728v0.032c-0.104-0.224-0.104-0.456-0.224-0.672c-0.184-0.235-0.382-0.459-0.592-0.672
			c-11.791-20.034-28.492-36.732-48.528-48.52c-0.21-0.21-0.432-0.407-0.664-0.592c-0.216-0.12-0.448-0.12-0.672-0.224
			c-41.68-23.99-92.976-23.99-134.656,0c-0.216,0.104-0.456,0.104-0.672,0.224c-0.232,0.185-0.454,0.382-0.664,0.592
			c-20.039,11.787-36.741,28.489-48.528,48.528c-0.21,0.21-0.407,0.432-0.592,0.664c-0.12,0.216-0.12,0.448-0.224,0.672
			c-24.064,41.871-23.997,93.392,0.176,135.2c0,0.056,0,0.112,0.048,0.16c0.522,0.858,1.2,1.609,2,2.216l0.336,0.256
			c1.341,0.974,2.951,1.508,4.608,1.528c0.24,0,0.488-0.072,0.728-0.096c0.24-0.024,0.368-0.04,0.552-0.072
			c0.951-0.134,1.87-0.441,2.712-0.904l27.712-16c3.841-2.184,5.184-7.068,3-10.909s-7.068-5.184-10.909-3
			c-0.031,0.017-0.061,0.035-0.092,0.053l-20.536,11.856c-6.919-14.055-11.015-29.329-12.056-44.96h23.728c4.418,0,8-3.582,8-8
			s-3.582-8-8-8h-23.592c1.014-15.598,5.092-30.843,12-44.864l20.432,11.792c3.812,2.234,8.713,0.956,10.947-2.856
			c2.234-3.812,0.956-8.713-2.856-10.947c-0.03-0.018-0.061-0.035-0.092-0.053l-20.512-11.84
			c8.729-12.985,19.895-24.151,32.88-32.88l11.84,20.504c2.184,3.841,7.068,5.184,10.909,3c3.841-2.184,5.184-7.068,3-10.909
			c-0.017-0.031-0.035-0.061-0.053-0.092L187.155,76.52c14.027-6.92,29.28-11.006,44.888-12.024v23.592c0,4.418,3.582,8,8,8
			s8-3.582,8-8V64.496c15.598,1.014,30.843,5.092,44.864,12L281.115,96.92c-2.235,3.811-0.957,8.713,2.854,10.948
			c3.811,2.235,8.713,0.957,10.948-2.854c0.018-0.031,0.036-0.062,0.054-0.093l11.84-20.504c12.985,8.729,24.151,19.895,32.88,32.88
			l-20.512,11.84c-3.841,2.184-5.184,7.068-3,10.909c2.184,3.841,7.068,5.184,10.909,3c0.031-0.017,0.061-0.035,0.092-0.053
			l20.432-11.792c6.92,14.027,11.006,29.28,12.024,44.888h-23.592c-4.418,0-8,3.582-8,8s3.582,8,8,8h23.728
			c-1.045,15.62-5.141,30.883-12.056,44.928l-20.536-11.856c-3.841-2.184-8.725-0.841-10.909,3
			c-2.163,3.805-0.867,8.642,2.909,10.856l27.712,16c3.824,2.212,8.718,0.906,10.931-2.919c0.002-0.003,0.004-0.006,0.005-0.009
			c0-0.048,0-0.104,0.048-0.16C382.048,210.12,382.115,158.599,358.051,116.728z"/>
	</g>
</g>
<g>
	<g>
		<path d="M240.043,160.088c-13.255,0-24,10.745-24,24c0.013,1.462,0.166,2.919,0.456,4.352l-35.88,20.72
			c-3.841,2.184-5.184,7.068-3,10.909s7.068,5.184,10.909,3c0.031-0.017,0.061-0.035,0.092-0.053l36.04-20.8
			c4.262,3.733,9.719,5.816,15.384,5.872c13.255,0,24-10.745,24-24S253.298,160.088,240.043,160.088z M240.043,192.088
			c-4.418,0-8-3.582-8-8c0.109-4.372,3.628-7.891,8-8c4.418,0,8,3.582,8,8S244.462,192.088,240.043,192.088z"/>
	</g>
</g>
<g>
	<g>
		<path d="M288.043,256.088h-96c-4.418,0-8,3.582-8,8v48c0,4.418,3.582,8,8,8h96c4.418,0,8-3.582,8-8v-48
			C296.043,259.67,292.462,256.088,288.043,256.088z M280.043,304.088h-80v-32h80V304.088z"/>
	</g>
</g>
<g>
</g>
<g>
</g>
<g>
</g>
<g>
</g>
<g>
</g>
<g>
</g>
<g>
</g>
<g>
</g>
<g>
</g>
<g>
</g>
<g>
</g>
<g>
</g>
<g>
</g>
<g>
</g>
<g>
</g>
</svg>
