<?xml version="1.0" encoding="iso-8859-1"?>
<!-- Generator: Adobe Illustrator 19.0.0, SVG Export Plug-In . SVG Version: 6.00 Build 0)  -->
<svg version="1.1" id="Capa_1" xmlns="http://www.w3.org/2000/svg" xmlns:xlink="http://www.w3.org/1999/xlink" x="0px" y="0px"
	 viewBox="0 0 480 480" style="enable-background:new 0 0 480 480;" xml:space="preserve">
<g>
	<g>
		<path d="M456,288.002c-10.14,0.035-19.164,6.44-22.544,16h-170.84l12.208,51.2l-63.912-51.2H46.552
			c-1.134-3.344-3.029-6.378-5.536-8.864c-4.465-4.594-10.609-7.171-17.016-7.136c-13.255,0-24,10.745-24,24v128
			c-0.025,13.224,10.675,23.964,23.899,23.989c10.174,0.019,19.249-6.393,22.629-15.989h386.944
			c4.393,12.473,18.066,19.023,30.539,14.629c9.596-3.38,16.009-12.455,15.989-22.629v-128C480,298.747,469.255,288.002,456,288.002
			z M32,440.002c0,4.418-3.582,8-8,8s-8-3.582-8-8v-128c0-4.418,3.582-8,8-8c2.158-0.007,4.223,0.879,5.704,2.448
			c1.484,1.465,2.312,3.467,2.296,5.552V440.002z M432,432.002H48v-112h157.288l95.888,76.8l-18.296-76.8H432V432.002z M464,440.002
			c0,4.418-3.582,8-8,8s-8-3.582-8-8v-128c-0.003-2.155,0.882-4.215,2.448-5.696c1.459-1.493,3.465-2.325,5.552-2.304
			c4.418,0,8,3.582,8,8V440.002z"/>
	</g>
</g>
<g>
	<g>
		<path d="M240,208.002c-4.418,0-8,3.582-8,8v48c0,4.418,3.582,8,8,8s8-3.582,8-8v-48C248,211.584,244.418,208.002,240,208.002z"/>
	</g>
</g>
<g>
	<g>
		<path d="M240,112.002c-4.418,0-8,3.582-8,8v48c0,4.418,3.582,8,8,8s8-3.582,8-8v-48C248,115.584,244.418,112.002,240,112.002z"/>
	</g>
</g>
<g>
	<g>
		<path d="M240,16.002c-4.418,0-8,3.582-8,8v48c0,4.418,3.582,8,8,8s8-3.582,8-8v-48C248,19.584,244.418,16.002,240,16.002z"/>
	</g>
</g>
<g>
	<g>
		<path d="M199.72,258.058l-33.944-33.936c-3.178-3.069-8.243-2.981-11.312,0.197c-2.994,3.1-2.994,8.015,0,11.115l33.944,33.936
			c3.178,3.07,8.242,2.982,11.312-0.196C202.714,266.073,202.714,261.158,199.72,258.058z"/>
	</g>
</g>
<g>
	<g>
		<path d="M131.832,190.178l-33.944-33.944c-3.178-3.069-8.243-2.981-11.312,0.197c-2.994,3.1-2.994,8.015,0,11.115l33.944,33.944
			c3.178,3.069,8.243,2.981,11.312-0.197C134.826,198.193,134.826,193.278,131.832,190.178z"/>
	</g>
</g>
<g>
	<g>
		<path d="M63.952,122.29L30.008,88.354c-3.178-3.069-8.243-2.982-11.312,0.196c-2.994,3.1-2.994,8.015,0,11.116l33.944,33.936
			c3.178,3.069,8.243,2.981,11.312-0.197C66.946,130.305,66.946,125.39,63.952,122.29z"/>
	</g>
</g>
<g>
	<g>
		<path d="M325.34,224.122c-3.1-2.994-8.015-2.994-11.116,0l-33.944,33.936c-3.124,3.125-3.123,8.19,0.002,11.314
			c1.5,1.499,3.534,2.342,5.654,2.342c2.123,0.006,4.16-0.838,5.656-2.344l33.944-33.936
			C328.606,232.256,328.518,227.192,325.34,224.122z"/>
	</g>
</g>
<g>
	<g>
		<path d="M393.62,156.234c-3.07-3.178-8.134-3.266-11.312-0.196c-0.067,0.064-0.132,0.13-0.196,0.196l-33.944,33.944
			c-3.124,3.125-3.123,8.19,0.002,11.314c1.5,1.499,3.534,2.342,5.654,2.342v0c2.122,0,4.156-0.844,5.656-2.344l33.944-33.944
			C396.602,164.477,396.69,159.412,393.62,156.234z"/>
	</g>
</g>
<g>
	<g>
		<path d="M461.5,88.354c-3.07-3.178-8.134-3.266-11.312-0.196c-0.067,0.064-0.132,0.13-0.196,0.196l-33.944,33.944
			c-3.124,3.125-3.123,8.19,0.002,11.314c1.5,1.499,3.534,2.342,5.654,2.342v0c2.122,0,4.156-0.844,5.656-2.344l33.944-33.944
			C464.482,96.597,464.57,91.532,461.5,88.354z"/>
	</g>
</g>
<g>
</g>
<g>
</g>
<g>
</g>
<g>
</g>
<g>
</g>
<g>
</g>
<g>
</g>
<g>
</g>
<g>
</g>
<g>
</g>
<g>
</g>
<g>
</g>
<g>
</g>
<g>
</g>
<g>
</g>
</svg>
