<?xml version="1.0" encoding="iso-8859-1"?>
<!-- Generator: Adobe Illustrator 19.0.0, SVG Export Plug-In . SVG Version: 6.00 Build 0)  -->
<svg version="1.1" id="Capa_1" xmlns="http://www.w3.org/2000/svg" xmlns:xlink="http://www.w3.org/1999/xlink" x="0px" y="0px"
	 viewBox="0 0 480 480" style="enable-background:new 0 0 480 480;" xml:space="preserve">
<g>
	<g>
		<g>
			<path d="M456,152c-10.145,0.021-19.176,6.431-22.544,16h-107.92c-39.464-47.24-109.752-53.544-156.992-14.08
				c-5.104,4.264-9.816,8.976-14.08,14.08H46.552c-1.136-3.344-3.034-6.379-5.544-8.864C36.546,154.542,30.404,151.966,24,152
				c-13.255,0-24,10.745-24,24v128c-0.025,13.224,10.675,23.964,23.899,23.989c10.174,0.019,19.249-6.393,22.629-15.989h107.936
				c39.464,47.24,109.752,53.544,156.993,14.079c5.104-4.264,9.816-8.976,14.079-14.079h107.936
				c4.393,12.473,18.066,19.023,30.539,14.629c9.596-3.38,16.009-12.455,15.989-22.629V176C480,162.745,469.255,152,456,152z
				 M32,304c0,4.418-3.582,8-8,8s-8-3.582-8-8V176c0-4.418,3.582-8,8-8c2.156-0.007,4.218,0.879,5.696,2.448
				c1.493,1.459,2.325,3.465,2.304,5.552V304z M128.352,248.584c0.064,0.88,0.168,1.752,0.256,2.632
				c0.192,1.992,0.432,4,0.736,5.944c0.144,0.952,0.296,1.904,0.464,2.856c0.36,2,0.8,4,1.248,5.96c0.184,0.8,0.352,1.6,0.552,2.4
				c0.704,2.696,1.488,5.368,2.4,8c0.144,0.424,0.32,0.8,0.472,1.248c0.8,2.216,1.648,4.408,2.576,6.568
				c0.368,0.856,0.8,1.696,1.16,2.544c0.805,1.744,1.656,3.469,2.552,5.176c0.456,0.864,0.912,1.72,1.392,2.576
				c0.288,0.512,0.536,1.04,0.8,1.544L48,296V184h94.992c-0.296,0.504-0.544,1.032-0.8,1.536c-0.48,0.856-0.936,1.712-1.392,2.576
				c-0.896,1.704-1.752,3.44-2.56,5.184c-0.384,0.84-0.8,1.68-1.152,2.528c-0.936,2.184-1.808,4.392-2.6,6.632
				c-0.144,0.4-0.312,0.8-0.456,1.184c-0.904,2.64-1.688,5.32-2.4,8c-0.2,0.8-0.36,1.6-0.544,2.336
				c-0.472,1.984-0.896,4-1.256,5.984c-0.168,0.952-0.32,1.896-0.464,2.848c-0.304,1.976-0.544,4-0.736,5.952
				c-0.088,0.88-0.192,1.752-0.256,2.632C128.136,234.256,128,237.12,128,240S128.136,245.744,128.352,248.584z M335.672,248.064
				c-1.274,15.891-6.556,31.2-15.352,44.496c-1.461,2.219-3.024,4.384-4.688,6.496l-0.04,0.048
				c-32.589,41.742-92.847,49.162-134.59,16.573c-6.197-4.838-11.776-10.421-16.61-16.621h-0.024
				C151.088,282.245,143.907,261.424,144,240c0-2.709,0.109-5.4,0.328-8.072c1.274-15.889,6.556-31.195,15.352-44.488
				c1.461-2.219,3.024-4.384,4.688-6.496v-0.048c32.654-41.77,92.987-49.161,134.757-16.507
				C322.393,182.579,335.993,210.466,336,240C336,242.709,335.891,245.397,335.672,248.064z M432,296h-94.992
				c0.304-0.512,0.592-1.04,0.84-1.552c0.472-0.848,0.928-1.704,1.384-2.56c0.896-1.701,1.744-3.421,2.544-5.16
				c0.4-0.856,0.8-1.712,1.176-2.576c0.917-2.133,1.768-4.301,2.552-6.504c0.16-0.44,0.344-0.872,0.496-1.312
				c0.904-2.624,1.688-5.296,2.4-8c0.208-0.8,0.376-1.6,0.568-2.4c0.456-1.96,0.88-3.928,1.232-5.912
				c0.176-0.96,0.328-1.92,0.472-2.888c0.304-1.96,0.544-3.936,0.736-5.92c0.088-0.88,0.192-1.76,0.256-2.64
				c0.2-2.84,0.336-5.696,0.336-8.576s-0.136-5.744-0.352-8.584c-0.064-0.88-0.168-1.752-0.256-2.632
				c-0.192-1.992-0.432-4-0.736-5.944c-0.144-0.952-0.296-1.904-0.464-2.856c-0.36-2-0.8-4-1.248-5.96
				c-0.184-0.8-0.352-1.6-0.552-2.4c-0.704-2.696-1.488-5.368-2.4-8c-0.144-0.424-0.32-0.8-0.472-1.248
				c-0.8-2.216-1.648-4.408-2.576-6.568c-0.368-0.856-0.8-1.696-1.16-2.544c-0.805-1.744-1.656-3.469-2.552-5.176
				c-0.456-0.864-0.912-1.72-1.392-2.576c-0.288-0.512-0.536-1.04-0.8-1.544H432V296z M464,304c0,4.418-3.582,8-8,8s-8-3.582-8-8
				V176c-0.007-2.156,0.879-4.218,2.448-5.696c1.459-1.493,3.465-2.325,5.552-2.304c4.418,0,8,3.582,8,8V304z"/>
			<path d="M183.329,183.391c-31.281,31.259-31.3,81.957-0.041,113.239c31.259,31.281,81.958,31.3,113.239,0.041
				C311.564,281.645,320.008,261.257,320,240c0.06-21.229-8.378-41.599-23.432-56.568
				C265.309,152.151,214.611,152.132,183.329,183.391z M279.2,189.48l-29,29c-6.493-2.888-13.907-2.888-20.4,0l-29-29
				C223.861,171.558,256.14,171.558,279.2,189.48z M245.656,245.656c-3.164,3.025-8.148,3.025-11.312,0
				c-1.506-1.496-2.35-3.533-2.344-5.656c0.001-4.418,3.583-7.999,8.002-7.998c2.121,0,4.154,0.843,5.654,2.342
				C248.779,237.468,248.779,242.532,245.656,245.656z M176,240c-0.027-14.203,4.708-28.005,13.448-39.2l28.952,28.912
				c-3.2,6.485-3.2,14.091,0,20.576L189.48,279.2C180.728,268.009,175.982,254.207,176,240z M200.8,290.52L200.8,290.52
				l28.912-28.92c6.485,3.2,14.091,3.2,20.576,0l28.912,28.92C256.14,308.442,223.861,308.442,200.8,290.52z M290.552,279.2
				L261.6,250.288c3.2-6.485,3.2-14.091,0-20.576l28.92-28.912c8.752,11.191,13.498,24.993,13.48,39.2
				C304.027,254.203,299.292,268.005,290.552,279.2z"/>
		</g>
	</g>
</g>
<g>
</g>
<g>
</g>
<g>
</g>
<g>
</g>
<g>
</g>
<g>
</g>
<g>
</g>
<g>
</g>
<g>
</g>
<g>
</g>
<g>
</g>
<g>
</g>
<g>
</g>
<g>
</g>
<g>
</g>
</svg>
