<?xml version="1.0" encoding="iso-8859-1"?>
<!-- Generator: Adobe Illustrator 19.0.0, SVG Export Plug-In . SVG Version: 6.00 Build 0)  -->
<svg version="1.1" id="Capa_1" xmlns="http://www.w3.org/2000/svg" xmlns:xlink="http://www.w3.org/1999/xlink" x="0px" y="0px"
	 viewBox="0 0 480 480" style="enable-background:new 0 0 480 480;" xml:space="preserve">
<g>
	<g>
		<path d="M382.528,279.993c-4.335-12.442-17.935-19.014-30.376-14.68c-6.877,2.396-12.284,7.802-14.68,14.68H320
			c-4.418,0-8-3.582-8-8v-17.472c12.442-4.335,19.014-17.935,14.68-30.376c-2.396-6.877-7.802-12.284-14.68-14.68V39.993H168
			v169.448c-3.342,1.137-6.374,3.034-8.856,5.544c-4.602,4.457-7.183,10.601-7.144,17.008c0.042,10.134,6.445,19.15,16,22.528
			v17.472c0,4.418-3.582,8-8,8h-17.472c-3.378-9.555-12.394-15.958-22.528-16c-10.14,0.035-19.164,6.44-22.544,16H0v144h97.472
			c4.335,12.442,17.935,19.014,30.376,14.68c6.877-2.396,12.284-7.802,14.68-14.68h194.944c3.378,9.555,12.394,15.958,22.528,16
			c10.14-0.035,19.164-6.44,22.544-16H480v-144H382.528z M96,407.993H16v-112h80V407.993z M128,415.993c0,4.418-3.582,8-8,8
			s-8-3.582-8-8v-128c-0.004-2.157,0.885-4.219,2.456-5.696c1.455-1.495,3.458-2.327,5.544-2.304c4.418,0,8,3.582,8,8V415.993z
			 M184,55.993h112v152H184V55.993z M170.456,226.297c1.455-1.495,3.458-2.328,5.544-2.304h128c4.418,0,8,3.582,8,8s-3.582,8-8,8
			H176c-4.418,0-8-3.582-8-8C167.996,229.836,168.885,227.774,170.456,226.297z M336,407.993H144v-112h16c13.255,0,24-10.745,24-24
			v-16h112v16c0,13.255,10.745,24,24,24h16V407.993z M368,415.993c0.003,2.155-0.882,4.215-2.448,5.696
			c-1.459,1.493-3.465,2.325-5.552,2.304c-4.418,0-8-3.582-8-8v-128c0-4.418,3.582-8,8-8s8,3.582,8,8V415.993z M464,407.993h-80
			v-112h80V407.993z"/>
	</g>
</g>
<g>
</g>
<g>
</g>
<g>
</g>
<g>
</g>
<g>
</g>
<g>
</g>
<g>
</g>
<g>
</g>
<g>
</g>
<g>
</g>
<g>
</g>
<g>
</g>
<g>
</g>
<g>
</g>
<g>
</g>
</svg>
