<?xml version="1.0" encoding="iso-8859-1"?>
<!-- Generator: Adobe Illustrator 19.0.0, SVG Export Plug-In . SVG Version: 6.00 Build 0)  -->
<svg version="1.1" id="Capa_1" xmlns="http://www.w3.org/2000/svg" xmlns:xlink="http://www.w3.org/1999/xlink" x="0px" y="0px"
	 viewBox="0 0 480 480" style="enable-background:new 0 0 480 480;" xml:space="preserve">
<g>
	<g>
		<path d="M382.528,279.96c-4.335-12.442-17.935-19.014-30.376-14.68c-6.877,2.396-12.284,7.802-14.68,14.68H288v-26.856
			c7.422-3.53,14.437-7.859,20.92-12.912c48.721-38.061,57.362-108.411,19.301-157.132C290.161,34.339,219.81,25.698,171.09,63.759
			c-48.721,38.061-57.362,108.411-19.301,157.132c10.717,13.718,24.485,24.748,40.212,32.213v26.856h-49.472
			c-3.378-9.555-12.394-15.958-22.528-16c-10.147,0.014-19.182,6.426-22.544,16H0v144h97.472
			c4.335,12.442,17.935,19.014,30.376,14.68c6.877-2.396,12.284-7.802,14.68-14.68h194.944c3.378,9.555,12.394,15.958,22.528,16
			c10.147-0.014,19.182-6.426,22.544-16H480v-144H382.528z M96,407.96H16v-112h80V407.96z M128,415.96c0,4.418-3.582,8-8,8
			s-8-3.582-8-8v-128c-0.007-2.158,0.879-4.223,2.448-5.704c1.465-1.484,3.467-2.312,5.552-2.296c4.418,0,8,3.582,8,8V415.96z
			 M144,151.96c0.002-53.019,42.985-95.998,96.004-95.996c53.019,0.002,95.998,42.985,95.996,96.004s-42.985,95.998-96.004,95.996
			c-6.327,0-12.639-0.626-18.844-1.868c-6.197-1.218-12.252-3.068-18.072-5.52h-0.04C167.34,225.586,144.083,190.679,144,151.96z
			 M272,259.328v20.632h-64v-20.632c2.936,0.88,5.936,1.6,8.952,2.224c1,0.208,2.008,0.368,3.016,0.552
			c2.251,0.4,4.509,0.733,6.776,1c1.184,0.144,2.4,0.28,3.552,0.384c2.832,0.24,5.672,0.384,8.52,0.416
			c0.392,0,0.8,0.056,1.184,0.056s0.8-0.056,1.184-0.056c2.848,0,5.688-0.176,8.52-0.416c1.192-0.104,2.4-0.24,3.552-0.384
			c2.264-0.264,4.496-0.6,6.728-0.992c1.032-0.184,2.064-0.344,3.08-0.56C266.08,260.92,269.064,260.208,272,259.328z M336,407.96
			H144v-112h192V407.96z M368,415.96c0.007,2.158-0.879,4.223-2.448,5.704c-1.465,1.484-3.467,2.312-5.552,2.296
			c-4.418,0-8-3.582-8-8v-128c0-4.418,3.582-8,8-8s8,3.582,8,8V415.96z M464,407.96h-80v-112h80V407.96z"/>
	</g>
</g>
<g>
	<g>
		<path d="M240,71.96c-44.183,0-80,35.817-80,80c0,4.418,3.582,8,8,8s8-3.582,8-8c0.04-35.33,28.67-63.96,64-64
			c35.33,0.04,63.96,28.67,64,64c0,4.418,3.582,8,8,8s8-3.582,8-8C320,107.777,284.183,71.96,240,71.96z"/>
	</g>
</g>
<g>
	<g>
		<path d="M262.627,192.059c-2.416-6.835-7.793-12.211-14.627-14.627V119.96c0-4.418-3.582-8-8-8s-8,3.582-8,8v57.472
			c-12.497,4.418-19.046,18.131-14.627,30.627c4.418,12.497,18.131,19.046,30.627,14.627S267.046,204.556,262.627,192.059z
			 M240,207.96c-4.418,0-8-3.582-8-8s3.582-8,8-8s8,3.582,8,8S244.418,207.96,240,207.96z"/>
	</g>
</g>
<g>
</g>
<g>
</g>
<g>
</g>
<g>
</g>
<g>
</g>
<g>
</g>
<g>
</g>
<g>
</g>
<g>
</g>
<g>
</g>
<g>
</g>
<g>
</g>
<g>
</g>
<g>
</g>
<g>
</g>
</svg>
