<?xml version="1.0" encoding="iso-8859-1"?>
<!-- Generator: Adobe Illustrator 19.0.0, SVG Export Plug-In . SVG Version: 6.00 Build 0)  -->
<svg version="1.1" id="Capa_1" xmlns="http://www.w3.org/2000/svg" xmlns:xlink="http://www.w3.org/1999/xlink" x="0px" y="0px"
	 viewBox="0 0 480 480" style="enable-background:new 0 0 480 480;" xml:space="preserve">
<g>
	<g>
		<path d="M382.528,168c-4.335-12.442-17.935-19.014-30.376-14.68c-6.877,2.396-12.284,7.802-14.68,14.68H320c-4.418,0-8-3.582-8-8
			v-17.472c12.442-4.335,19.014-17.935,14.68-30.376c-2.396-6.877-7.802-12.284-14.68-14.68V0H168v97.448
			c-3.344,1.136-6.379,3.034-8.864,5.544c-4.594,4.462-7.17,10.604-7.136,17.008c0.042,10.134,6.445,19.15,16,22.528V160
			c0,4.418-3.582,8-8,8h-17.472c-3.378-9.555-12.394-15.958-22.528-16c-10.145,0.021-19.176,6.431-22.544,16H0v144h97.472
			c4.335,12.442,17.935,19.014,30.376,14.68c6.877-2.396,12.284-7.802,14.68-14.68H160c4.418,0,8,3.582,8,8v17.472
			c-9.555,3.378-15.958,12.394-16,22.528c0.021,10.145,6.431,19.176,16,22.544V480h144v-97.472
			c12.442-4.335,19.014-17.935,14.68-30.376c-2.396-6.877-7.802-12.284-14.68-14.68V320c0-4.418,3.582-8,8-8h17.472
			c3.378,9.555,12.394,15.958,22.528,16c10.145-0.021,19.176-6.431,22.544-16H480V168H382.528z M96,296H16V184h80V296z M128,304
			c0,4.418-3.582,8-8,8s-8-3.582-8-8V176c-0.007-2.156,0.879-4.218,2.448-5.696c1.459-1.493,3.465-2.325,5.552-2.304
			c4.418,0,8,3.582,8,8V304z M184,16h112v80H184V16z M170.448,114.304c1.459-1.493,3.465-2.325,5.552-2.304h128c4.418,0,8,3.582,8,8
			s-3.582,8-8,8H176c-4.418,0-8-3.582-8-8C167.993,117.844,168.879,115.782,170.448,114.304z M296,464H184v-80h112V464z M304,368
			H176c-2.156,0.007-4.218-0.879-5.696-2.448c-1.493-1.459-2.325-3.465-2.304-5.552c0-4.418,3.582-8,8-8h128c4.418,0,8,3.582,8,8
			S308.418,368,304,368z M336,296h-16c-13.255,0-24,10.745-24,24v16H184v-16c0-13.255-10.745-24-24-24h-16V184h16
			c13.255,0,24-10.745,24-24v-16h112v16c0,13.255,10.745,24,24,24h16V296z M368,304c0.007,2.156-0.879,4.218-2.448,5.696
			c-1.459,1.493-3.465,2.325-5.552,2.304c-4.418,0-8-3.582-8-8V176c0-4.418,3.582-8,8-8s8,3.582,8,8V304z M464,296h-80V184h80V296z"
			/>
	</g>
</g>
<g>
</g>
<g>
</g>
<g>
</g>
<g>
</g>
<g>
</g>
<g>
</g>
<g>
</g>
<g>
</g>
<g>
</g>
<g>
</g>
<g>
</g>
<g>
</g>
<g>
</g>
<g>
</g>
<g>
</g>
</svg>
