<svg id="Capa_1" enable-background="new 0 0 512 512" height="512" viewBox="0 0 512 512" width="512" xmlns="http://www.w3.org/2000/svg"><g><path d="m322.601 261.718h95.867c7.762 0 14.077-6.321 14.077-14.09v-14.962c0-.969.011-1.802.02-2.525.087-7.127-.807-9.191-5.979-13.799-.584-.521-1.269-1.13-2.072-1.871l-56.56-56.491c-.123-.123-.25-.242-.382-.356-5.358-4.654-8.992-6.306-18.723-6.306h-26.249c-7.777 0-14.105 6.321-14.105 14.09v82.22c0 7.769 6.328 14.09 14.106 14.09zm.894-95.4h25.354c5.717 0 6.072.189 8.69 2.46l56.479 56.41c.068.068 3.264 2.955 3.56 3.224 0 .463-.033 3.214-.033 4.254v14.052h-94.05z"/><path d="m115.16 349.274c-16.187 0-29.355 13.147-29.355 29.307s13.169 29.306 29.355 29.306 29.355-13.146 29.355-29.306-13.168-29.307-29.355-29.307zm0 43.613c-7.916 0-14.355-6.417-14.355-14.306s6.439-14.307 14.355-14.307 14.355 6.418 14.355 14.307-6.439 14.306-14.355 14.306z"/><path d="m381.391 349.274c-16.187 0-29.354 13.147-29.354 29.307s13.168 29.306 29.354 29.306 29.355-13.146 29.355-29.306-13.169-29.307-29.355-29.307zm0 43.613c-7.915 0-14.354-6.417-14.354-14.306s6.439-14.307 14.354-14.307c7.916 0 14.355 6.418 14.355 14.307s-6.439 14.306-14.355 14.306z"/><path d="m84.886 253.714c4.143 0 7.5-3.358 7.5-7.5v-45.141c0-4.142-3.357-7.5-7.5-7.5s-7.5 3.358-7.5 7.5v45.141c0 4.142 3.357 7.5 7.5 7.5z"/><path d="m131.63 253.714c4.143 0 7.5-3.358 7.5-7.5v-45.141c0-4.142-3.357-7.5-7.5-7.5s-7.5 3.358-7.5 7.5v45.141c0 4.142 3.357 7.5 7.5 7.5z"/><path d="m178.345 253.714c4.143 0 7.5-3.358 7.5-7.5v-45.141c0-4.142-3.357-7.5-7.5-7.5s-7.5 3.358-7.5 7.5v45.141c0 4.142 3.357 7.5 7.5 7.5z"/><path d="m225.06 253.714c4.143 0 7.5-3.358 7.5-7.5v-45.141c0-4.142-3.357-7.5-7.5-7.5s-7.5 3.358-7.5 7.5v45.141c0 4.142 3.357 7.5 7.5 7.5z"/><path d="m482.673 331.427h-1.089v-111.545c0-1.154.012-2.151.021-3.022.094-8.327-.791-10.38-6.764-15.692-.755-.671-1.646-1.464-2.7-2.438l-88.751-81.906c-1.36-1.257-2.401-2.277-3.32-3.178-6.033-5.915-8.02-6.375-17.907-6.337h-59.077v-24.772c0-7.005-5.704-12.704-12.716-12.704h-77.357c-7.455 0-10.256 6.498-11.284 8.887l-19.967 45.291c-.349.024-.792.042-1.348.042h-164.297c-6.574 0-11.922 5.344-11.922 11.913v67.399c0 .734-.007 1.365-.013 1.916-.058 5.573.425 6.852 3.447 12.27l34.108 61.524h-4.161c-8.652 0-15.692 7.044-15.692 15.692l-.048 37.701c-12.553 3.335-21.836 14.777-21.836 28.323 0 16.144 13.156 29.278 29.334 29.278l23.173-.022c5.427 29.605 31.447 52.12 62.653 52.12 31.209 0 57.231-22.519 62.655-52.128l140.916-.026c5.414 29.621 31.441 52.154 62.659 52.154 31.243 0 57.29-22.547 62.693-52.183h38.589c16.171 0 29.327-13.134 29.327-29.278s-13.155-29.279-29.326-29.279zm-463.484-124.066c-.023-.348.006-30.804.006-30.804h88.17c4.143 0 7.5-3.358 7.5-7.5s-3.357-7.5-7.5-7.5h-88.17v-22.504h161.219c7.985 0 12.423-2.522 14.838-8.435.059-.143.116-.288.188-.452l19.985-45.333h72.66v22.476h-6.645c-8.027 0-14.559 6.524-14.559 14.542v39.706h-124.905c-4.143 0-7.5 3.358-7.5 7.5s3.357 7.5 7.5 7.5h124.907v102.518h-207.995s-39.496-71.23-39.699-71.714zm32.363 167.687-22.225.021c-7.9 0-14.327-6.405-14.327-14.278 0-7.87 6.436-14.288 14.327-14.307h30.861c-4.982 8.474-8.064 18.188-8.636 28.564zm63.608 52.119c-26.859 0-48.711-21.795-48.711-48.586 0-26.806 21.852-48.615 48.711-48.615s48.711 21.809 48.711 48.615c0 26.791-21.851 48.586-48.711 48.586zm202.626-52.153-139.019.025c-.573-10.375-3.655-20.088-8.638-28.561l59.213-.022c4.106-.002 7.685-3.167 7.807-7.271.126-4.247-3.278-7.729-7.497-7.729-.001 0-.002 0-.003 0l-71.708.027c-11.316-10.257-26.33-16.516-42.781-16.516-16.452 0-31.467 6.26-42.783 16.518h-35.54l.047-36.707c0-.348.35-.702.692-.702h16.879c.007 0 .015.001.022.001.008 0 .016-.001.024-.001h214.694c6.996 0 12.688-5.674 12.688-12.648v-159.119h13.701.002.002s69.91-.001 70.993.045c.605.026 1.177.26 1.618.675.414.389 97.969 90.498 98.41 90.92.021.69-.024 67.926-.024 67.926h-21.723c-4.107 0-7.688 3.164-7.811 7.269-.128 4.247 3.277 7.731 7.497 7.731h22.037v34.553h-42.456c-11.314-10.224-26.309-16.461-42.737-16.461-16.436 0-31.438 6.248-42.75 16.489h-73.525c-4.107 0-7.688 3.164-7.811 7.269-.128 4.247 3.277 7.731 7.497 7.731h61.633c-4.988 8.471-8.073 18.183-8.65 28.558zm63.605 52.153c-26.859 0-48.711-21.795-48.711-48.586 0-26.806 21.852-48.615 48.711-48.615 26.875 0 48.74 21.809 48.74 48.615 0 26.791-21.865 48.586-48.74 48.586zm101.282-52.183h-37.65c-.583-10.375-3.674-20.087-8.667-28.557h46.317c7.9 0 14.327 6.405 14.327 14.278s-6.427 14.279-14.327 14.279z"/></g></svg>