<svg id="Capa_1" enable-background="new 0 0 512 512" height="512" viewBox="0 0 512 512" width="512" xmlns="http://www.w3.org/2000/svg"><g><path d="m442.721 229.871h56.507c7.162 0 12.772-4.848 12.772-11.036v-89.206c0-6.188-5.61-11.035-12.772-11.035h-56.507v-32.795c7.933-.805 14.146-7.516 14.146-15.65v-21.184c0-23.771-19.374-43.109-43.188-43.109s-43.188 19.339-43.188 43.109v21.184c0 8.125 6.21 14.83 14.146 15.647v32.798h-265.69v-32.799c7.935-.817 14.145-7.522 14.145-15.647v-21.183c0-23.771-19.374-43.109-43.188-43.109s-43.189 19.338-43.189 43.109v21.184c0 8.124 6.198 14.828 14.117 15.646v32.799h-48.088c-7.146 0-12.744 4.847-12.744 11.035v89.206c0 6.188 5.598 11.036 12.744 11.036h48.088v40.492h-48.088c-7.146 0-12.744 4.848-12.744 11.035v89.206c0 6.188 5.598 11.036 12.744 11.036h48.088v39.074c-9.775 2.91-16.923 11.954-16.923 22.636v8.622c-14.931.024-27.071 12.158-27.071 27.071v19.601c0 4.143 3.357 7.5 7.5 7.5h131.102c4.143 0 7.5-3.357 7.5-7.5v-19.601c0-13.888-10.531-25.362-24.038-26.893v-8.8c0-11.768-8.663-21.551-19.955-23.331v-38.379h265.688v39.068c-9.774 2.904-16.924 11.952-16.924 22.642v8.622c-14.93.024-27.07 12.158-27.07 27.071v19.601c0 4.143 3.357 7.5 7.5 7.5h131.074c4.143 0 7.5-3.357 7.5-7.5v-19.601c0-13.878-10.516-25.345-24.01-26.889v-8.804c0-11.77-8.676-21.554-19.984-23.332v-38.378h56.507c7.162 0 12.772-4.848 12.772-11.036v-89.206c0-6.188-5.61-11.035-12.772-11.035h-56.507zm45.776 55.494-67.621 81.275h-23.856l67.625-81.275zm-110.991 81.275h-61.642l67.625-81.276h61.642zm-87.508-32.501c-3.175-2.658-7.905-2.241-10.565.935l-26.438 31.567h-61.629l67.625-81.276h61.618l-18.941 22.774c-2.648 3.185-2.214 7.913.971 10.563 3.186 2.648 7.914 2.214 10.563-.971l26.919-32.366h23.855l-67.626 81.275h-23.789l18.372-21.936c2.659-3.176 2.241-7.905-.935-10.565zm-223.13 32.501 67.626-81.276h61.614l-67.625 81.276zm-43.367 0 67.623-81.276h23.856l-67.626 81.276zm.001-151.77 67.622-81.276h23.856l-67.626 81.276zm110.992-81.276h61.615l-16.925 20.342c-2.649 3.185-2.216 7.913.969 10.563 3.182 2.647 7.911 2.217 10.563-.969l24.906-29.936h23.856l-67.626 81.276h-23.806l21.538-25.759c2.657-3.177 2.234-7.907-.943-10.564s-7.907-2.236-10.564.943l-29.583 35.38h-61.626zm186.111.001-67.625 81.276h-61.614l67.625-81.276zm124.526.001-67.625 81.275h-61.642l67.625-81.276zm43.366 0-67.621 81.275h-23.856l67.625-81.275zm-192.147 81.275h-23.856l67.625-81.276h23.856zm88.285 15v40.492h-265.688v-40.492zm-169.014 55.493h23.856l-67.626 81.276h-23.856zm212.1-15.001h-28.086v-40.492h24.758 3.328zm12.668-55.492 56.611-68.041v68.042zm-54.9-165.906c0-15.5 12.646-28.109 28.188-28.109s28.188 12.609 28.188 28.109v21.184c0 .383-.357.731-.749.731h-5.896-43.086-5.868c-.414 0-.777-.342-.777-.731zm14.146 36.915h28.086v32.714h-28.086zm-337.92-36.915c0-15.5 12.646-28.109 28.188-28.109s28.188 12.609 28.188 28.109v21.184c0 .376-.378.731-.777.731h-54.85c-.392 0-.749-.349-.749-.731zm14.117 36.915h28.115v32.714h-16.284c-.015 0-.031 0-.046 0h-11.785zm-4.221 47.714-56.611 68.041v-68.042zm4.221 96.277h28.115v40.492h-16.292c-.009 0-.019 0-.028 0h-11.795zm-4.222 55.493-56.61 68.04v-68.041zm76.33 193.68v12.101h-116.102v-12.101c0-6.656 5.436-12.072 12.116-12.072h7.455 79.993 4.423c6.681 0 12.115 5.416 12.115 12.072zm-24.038-35.693v8.621h-64.993v-8.621c0-4.754 3.896-8.622 8.686-8.622h.737 43.115 3.798c4.774 0 8.657 3.868 8.657 8.622zm-19.955-23.622h-28.115v-38.088h28.115zm367.768 59.315v12.101h-116.074v-12.101c0-6.656 5.435-12.072 12.115-12.072h7.455 79.994 4.394c6.68 0 12.116 5.416 12.116 12.072zm-24.01-35.693v8.621h-64.994v-8.621c0-4.754 3.884-8.622 8.658-8.622h.766 43.086 3.799c4.789 0 8.685 3.868 8.685 8.622zm-19.984-23.622h-28.086v-38.088h24.758 3.328zm12.668-53.088 56.611-68.042v68.042z"/></g></svg>