<svg id="icons" enable-background="new 0 0 64 64" height="512" viewBox="0 0 64 64" width="512" xmlns="http://www.w3.org/2000/svg"><path d="m41.519 55.001h-32.01-.001-.001c-1.379 0-2.5 1.121-2.5 2.5s1.121 2.5 2.5 2.5h.001.001 32.01c.003 0 .005-.001.007-.001 1.372-.008 2.486-1.125 2.486-2.499s-1.114-2.491-2.486-2.499c-.003 0-.005-.001-.007-.001zm-32.01 3h-.002c-.275 0-.5-.225-.5-.5s.225-.5.5-.5h.001.001 32.003c.275 0 .5.225.5.5s-.225.5-.5.5z"/><path d="m33.991 41.92c-.004-.056.006-.11-.008-.166l-1.26-4.998c-.006-.024-.023-.043-.032-.066-.022-.071-.056-.134-.094-.197-.029-.048-.056-.095-.092-.137-.049-.057-.104-.101-.162-.146-.043-.031-.083-.063-.13-.087-.066-.035-.136-.056-.209-.075-.054-.015-.105-.027-.161-.033-.031-.003-.059-.018-.09-.018h-8.752c-.553 0-1 .447-1 1v13.004c0 .553.447 1 1 1h10.005c.553 0 1-.447 1-1v-8.004c.001-.027-.013-.05-.015-.077zm-9.989-3.923h.998v11.004h-.998zm2.998 11.004v-11.004h3.974l1.033 4.098v6.906z"/><path d="m63.95 38.75c-.001-.004 0-.009-.001-.013l-.007-.026c-.013-.04-.016-.082-.032-.12l-9.941-36.852c-.118-.437-.514-.74-.966-.74h-3.999c-.054 0-.1.022-.15.03-.071.011-.143.016-.211.042-.072.029-.133.075-.196.119-.039.027-.084.04-.119.072l-25.002 23.002c-.207.19-.324.458-.323.738l.02 7.996h-3.023c-.553 0-1 .447-1 1v4h-18c-.553 0-1 .447-1 1v14.003c0 .553.447 1 1 1h4.27c-.787.952-1.261 2.172-1.261 3.5 0 3.032 2.468 5.5 5.5 5.5h32.01c3.032 0 5.5-2.468 5.5-5.5s-2.468-5.5-5.5-5.5h-4.517v-10.003c0-.043-.02-.08-.024-.121s.005-.082-.006-.123l-1.985-7.88v-8.805l13.598-15.111 9.047 28.04h-9.631c-.553 0-1 .447-1 1s.447 1 1 1h.003v2c0 4.406 3.584 7.99 7.99 7.99 4.368 0 7.924-3.525 7.983-7.88.005-.038.023-.071.023-.11v-2.999s0 0 0-.001c0-.088-.028-.167-.05-.248zm-44.95 13.251h-17v-12.003h17zm26.019 5.5c0 1.93-1.57 3.5-3.5 3.5h-32.01c-1.93 0-3.5-1.57-3.5-3.5s1.57-3.5 3.5-3.5h26.357c.047.007.088.027.136.027s.089-.021.136-.027h5.381c1.929 0 3.5 1.57 3.5 3.5zm-24.019-5.5v-17.003h3.024.002 9.181l1.795 7.124v9.879zm11.986-19.003h-.98l-.002-4.614.982-1.092zm1-13.857c-.553 0-1 .448-1 1v4.162l-2.726 3.029c-.165.184-.257.422-.257.669l.002 4.998h-4.983l-.019-7.56 23-21.161v3.337l-13.017 14.465v-1.939c0-.553-.447-1-1-1zm16.018-11.301v-4.841h2.233l9.44 34.999h-1.943zm5.99 40.148c-3.303 0-5.99-2.688-5.99-5.99v-2h11.996v1.918c-.002.028-.017.053-.017.082 0 3.303-2.686 5.99-5.989 5.99z"/><path d="m5 44h11c.553 0 1-.447 1-1s-.447-1-1-1h-11c-.553 0-1 .447-1 1s.447 1 1 1z"/><path d="m5 46.999h11c.553 0 1-.447 1-1s-.447-1-1-1h-11c-.553 0-1 .447-1 1s.447 1 1 1z"/><path d="m16 47.998h-11c-.553 0-1 .447-1 1s.447 1 1 1h11c.553 0 1-.447 1-1s-.447-1-1-1z"/></svg>