<svg id="Capa_1" enable-background="new 0 0 512 512" height="512" viewBox="0 0 512 512" width="512" xmlns="http://www.w3.org/2000/svg"><g><g><path d="m454.854 354.165c-7.721 0-15.067 1.621-21.728 4.523l-9.335-15.253c1.515-2.176 2.902-4.668 4.347-7.435l20.329-38.964c1.916-3.672.492-8.202-3.18-10.118-3.674-1.917-8.203-.492-10.119 3.181l-20.327 38.96c-4.474 8.564-5.027 8.564-9.336 8.564h-74.212c-.016 0-.032 0-.048 0h-105.562l-33.432-115.581h103.543c4.142 0 7.5-3.357 7.5-7.5s-3.358-7.5-7.5-7.5h-113.358c-.01 0-.02 0-.029 0h-.132c-7.681 0-13.93-6.228-13.93-13.883s6.249-13.883 13.93-13.883h300.795c7.681 0 13.93 6.228 13.93 13.883s-6.249 13.883-13.93 13.883h-.088c-.014 0-.028 0-.042 0h-150.804c-4.142 0-7.5 3.357-7.5 7.5s3.358 7.5 7.5 7.5h138.557l-20.166 38.623c-1.917 3.672-.495 8.203 3.177 10.12 1.108.579 2.295.854 3.465.854 2.704 0 5.316-1.468 6.655-4.03l23.998-45.963c13.698-2.271 24.178-14.177 24.178-28.487 0-15.926-12.978-28.883-28.93-28.883h-5.763c-3.12-20.216-18.723-36.566-40.509-42.025-2.551-27.297-25.81-49.244-54.022-50.437-12.071-14.485-30.254-22.766-50.118-22.766-19.866 0-38.048 8.279-50.118 22.766-28.182 1.192-51.443 23.139-54.018 50.436-21.782 5.455-37.392 21.808-40.513 42.026h-5.734c-15.952 0-28.93 12.957-28.93 28.883 0 13.941 9.944 25.606 23.123 28.298l33.601 116.166h-26.93c-7.857 0-9.918-1.744-12.971-10.984l-43.337-130.82c-4.229-12.765-10.476-21.267-27.21-21.267h-3.304v-6.903c0-9.425-7.69-17.092-17.144-17.092h-47.624c-17.396 0-31.549 14.129-31.549 31.495 0 17.384 14.153 31.526 31.549 31.526h47.623c9.453 0 17.144-7.682 17.144-17.123v-6.903h3.304c7.849 0 9.91 1.745 12.971 10.984l43.335 130.814c4.219 12.769 10.461 21.272 27.212 21.272h36.733c.057.001.113.002.17.002s.113-.001.17-.002h14.694l19.929 69.265c6.497 22.572 17.852 35.518 31.152 35.518 13.3 0 24.656-12.947 31.153-35.519l19.928-69.264h68.437c2.232 0 4.194-.208 5.967-.581l8.854 14.467c-12.183 9.984-19.97 25.125-19.97 42.049 0 29.993 24.447 54.394 54.498 54.394 30.034 0 54.468-24.4 54.468-54.394 0-29.992-24.434-54.392-54.467-54.392zm-219.28-218.089c6.417-1.104 7.737-5.466 7.715-8.93-.001-.138-.002-.296 0-.479.348-21.723 18.803-39.622 41.136-39.9.29-.003.519.001.704.004 3.428.038 5.772-1.102 7.761-3.861.119-.165.274-.382.5-.666 9.195-11.563 23.507-18.194 39.267-18.194s30.072 6.632 39.269 18.197c.225.282.38.499.499.664 1.989 2.759 4.307 3.896 7.76 3.86.185-.003.415-.007.701-.004 22.362.278 40.817 18.174 41.14 39.901.003.183.001.341 0 .478-.022 3.465 1.298 7.827 7.695 8.927 16.677 2.917 29.051 14.051 32.313 28.204h-258.752c3.262-14.15 15.633-25.284 32.292-28.201zm-154.259 60.379c0 1.15-.981 2.123-2.144 2.123h-47.622c-9.125 0-16.549-7.414-16.549-16.526 0-9.096 7.424-16.495 16.549-16.495h47.623c1.162 0 2.144.958 2.144 2.092v28.806zm221.41 221.284c-4.904 17.039-11.94 24.666-16.738 24.666s-11.833-7.627-16.738-24.666l-18.735-65.116h70.946zm152.129 30.212c-21.779 0-39.498-17.672-39.498-39.394 0-11.512 4.978-21.885 12.898-29.094l7.697 12.576c-3.885 4.416-6.248 10.195-6.248 16.517 0 13.83 11.282 25.081 25.15 25.081 13.852 0 25.121-11.251 25.121-25.081s-11.269-25.081-25.121-25.081c-2.103 0-4.145.262-6.099.75l-7.697-12.577c4.297-1.603 8.945-2.484 13.796-2.484 21.763 0 39.468 17.672 39.468 39.393 0 21.722-17.705 39.394-39.467 39.394zm0-49.474c5.581 0 10.121 4.522 10.121 10.081s-4.54 10.081-10.121 10.081c-5.597 0-10.15-4.522-10.15-10.081s4.553-10.081 10.15-10.081z"/><path d="m283.591 256.607h-28.722c-4.142 0-7.5 3.357-7.5 7.5s3.358 7.5 7.5 7.5h28.722c4.142 0 7.5-3.357 7.5-7.5s-3.358-7.5-7.5-7.5z"/><path d="m283.591 288.058h-28.722c-4.142 0-7.5 3.357-7.5 7.5s3.358 7.5 7.5 7.5h28.722c4.142 0 7.5-3.357 7.5-7.5s-3.358-7.5-7.5-7.5z"/></g></g></svg>