<svg id="icons" enable-background="new 0 0 64 64" height="512" viewBox="0 0 64 64" width="512" xmlns="http://www.w3.org/2000/svg"><path d="m63.954 30.778c-.016-.065-.023-.131-.052-.19-.004-.01-.003-.021-.008-.03l-5.001-10.002c-.022-.045-.061-.074-.089-.114-.041-.059-.078-.12-.131-.168-.05-.045-.105-.074-.162-.109-.053-.032-.102-.068-.16-.09-.071-.027-.146-.034-.221-.045-.045-.006-.085-.026-.132-.026h-11.994c-.553 0-1 .448-1 1v12.001h-2.539l2.149-15.001h8.386c1.379 0 2.5-1.122 2.5-2.5s-1.121-2.5-2.5-2.5h-10.545c-.033 0-.073.002-.111.006-.089.005-.171.015-.22.023-.071.008-.146.018-.223.035-.105.024-.207.057-.313.096-.028.01-.117.042-.145.055-.104.046-.205.103-.282.151-.023.013-.1.06-.122.075-.099.067-.189.144-.276.224-.025.021-.079.07-.103.095-.074.078-.142.161-.22.265-.018.023-.069.094-.085.118-.052.082-.097.167-.149.274-.011.021-.057.121-.065.142-.032.078-.059.161-.092.283-.015.052-.029.104-.042.167-.011.042-.021.088-.026.125l-.556 3.864h-.177l-16.78-8.882c-.024-.013-.052-.012-.077-.023-.063-.027-.127-.044-.195-.058-.063-.013-.122-.024-.185-.024-.062 0-.121.009-.184.02-.068.012-.133.027-.197.053-.025.01-.053.008-.077.021l-18.003 8.998c-.029.015-.048.042-.075.059-.043.027-.082.053-.12.085-.03.025-.061.047-.087.076-.029.031-.05.066-.074.101-.028.04-.053.079-.076.123-.018.033-.036.064-.049.1-.017.042-.022.084-.032.128-.007.029-.025.052-.029.082l-2.997 21c-.004.025.006.048.004.072s-.015.046-.015.07c0 .044.02.081.025.124.009.068.018.134.039.197.021.062.051.114.082.169.032.057.064.109.106.158.042.048.089.087.14.126.051.04.1.077.157.106.06.03.121.048.187.065.042.013.077.037.122.044.048.008.095.011.142.011h4.991v3.992c0 .553.447 1 1 1h1.016v.001c0 3.859 3.141 7 7 7 3.84 0 6.966-3.109 6.997-6.942.031 3.833 3.157 6.942 6.997 6.942 3.859 0 7-3.141 7-7v-.001h9.003v.001c0 3.859 3.141 7 7 7s7-3.141 7-7c0-.693-.104-1.363-.294-1.996h4.29c.553 0 1-.447 1-1v-12.995c0-.011-.006-.02-.006-.03-.002-.067-.024-.13-.04-.197zm-11.95 9.218c-1.957 0-3.728.811-4.999 2.109v-1.107-.001-.001l-.001-6.99s.001-.001.001-.002-.001-.002-.001-.002v-11.999h10.377l4.619 9.238v8.756h-9.977c-.006 0-.012-.001-.019-.001zm-6.999-4.992v4.993h-3.542l.715-4.993zm-22.709 9.991h-.584c-.344-1.148-.974-2.174-1.809-2.992h4.201c-.834.818-1.464 1.844-1.808 2.992zm-17.431-23.993h.981l-2.711 19.001h-.982zm.291 19.001 2.711-19.001h31.271l-2.73 18.995h-7.388c-.007 0-.013-.001-.02-.001s-.013.001-.02.001h-13.954c-.007 0-.013-.001-.02-.001s-.013.001-.02.001h-8.996c-.011 0-.019.006-.029.006zm37.058-24.94-.303-.953.401.914-.081-.997.189.98c.026 0 .056-.001.085-.004h10.495c.275 0 .5.224.5.5s-.225.5-.5.5h-9.253c-.497 0-.919.366-.99.858l-3.315 23.136h-1.012l3.526-24.54c.004-.013.006-.023.007-.028l.032-.112c.001-.002.058-.103.059-.105l.074-.081-.688-.726zm-33.979 3.939 13.753-6.874 12.986 6.874zm-.244 25.993v-2.992h2.119c-.835.818-1.465 1.844-1.809 2.992zm7.016 7.001c-2.757 0-5-2.243-5-5 0-2.733 2.207-4.956 4.933-4.993h.135c2.726.037 4.933 2.26 4.933 4.993-.001 2.757-2.244 5-5.001 5zm13.994 0c-2.757 0-5-2.243-5-5 0-2.733 2.207-4.956 4.933-4.993h.135c2.726.037 4.933 2.26 4.933 4.993-.001 2.757-2.244 5-5.001 5zm4.896-9.993h5.111c.011 0 .019-.006.029-.006h5.967v2.998h-9.299c-.343-1.148-.973-2.174-1.808-2.992zm18.107 9.993c-2.757 0-5-2.243-5-5 0-2.756 2.241-4.998 4.997-5 .001 0 .002.001.003.001h.01c2.752.005 4.99 2.245 4.99 4.999 0 2.757-2.243 5-5 5zm4.891-9.999h5.105v1.003h-4.257c-.252-.36-.536-.696-.848-1.003z"/><path d="m58.815 30.398-2.922-5.84c-.17-.339-.516-.553-.895-.553h-4.994c-.553 0-1 .448-1 1v6.001c0 .552.447 1 1 1h7.997.02c.553 0 1-.448 1-1 0-.229-.076-.44-.206-.608zm-7.81-.392v-4.001h3.376l2.003 4.001z"/><path d="m15.007 43.996c-1.654 0-3 1.346-3 3s1.346 3 3 3 3-1.346 3-3-1.346-3-3-3zm0 4c-.552 0-1-.448-1-1s.448-1 1-1 1 .448 1 1-.448 1-1 1z"/><path d="m29.001 43.996c-1.654 0-3 1.346-3 3s1.346 3 3 3 3-1.346 3-3-1.346-3-3-3zm0 4c-.552 0-1-.448-1-1s.448-1 1-1 1 .448 1 1-.448 1-1 1z"/><path d="m52.001 43.996c-1.654 0-3 1.346-3 3s1.346 3 3 3 3-1.346 3-3-1.346-3-3-3zm0 4c-.552 0-1-.448-1-1s.448-1 1-1 1 .448 1 1-.448 1-1 1z"/><path d="m51 33.004h-1c-.553 0-1 .447-1 1s.447 1 1 1h1c.553 0 1-.447 1-1s-.447-1-1-1z"/></svg>