<svg id="icons" enable-background="new 0 0 64 64" height="512" viewBox="0 0 64 64" width="512" xmlns="http://www.w3.org/2000/svg"><path d="m1.99 43.834v7.163c0 .005-.003.01-.003.015v4.998c0 3.859 3.141 7 7 7h14.994v.002c0 .553.447 1 1 1h14.006c.553 0 1-.447 1-1v-.008h13.985c.011 0 .019.006.029.006 3.859 0 7-3.141 7-7v-4.998c0-.005-.003-.01-.003-.015v-6.976h.002c1.654 0 3-1.346 3-3v-1.998c0-1.302-.839-2.401-2-2.815v-3.216c0-11.514-6.656-22.043-16.999-27.027v-2.385c0-.05-.021-.093-.028-.141-.012-.078-.018-.155-.046-.228-.024-.062-.066-.111-.103-.167-.034-.053-.061-.108-.104-.154-.057-.06-.128-.1-.197-.143-.038-.024-.065-.059-.107-.078-.007-.003-.014-.006-.021-.009-.003-.001-.006-.002-.008-.003-3.902-1.771-8.07-2.67-12.387-2.67s-8.484.898-12.387 2.67c-.002.001-.005.002-.008.003-.007.003-.014.006-.021.009-.042.02-.069.054-.108.078-.069.044-.141.083-.196.143-.045.046-.071.103-.105.155-.035.055-.077.104-.102.166-.028.072-.034.15-.046.228-.007.048-.028.091-.028.141v2.385c-10.343 4.984-16.999 15.513-16.999 27.027v3.216c-1.161.414-2 1.514-2 2.815v1.998c0 1.299.834 2.396 1.99 2.813zm57.011 9.189c-.006 2.939-2.585 3.988-4.999 3.988h-14.015v-.006c0-.553-.447-1-1-1h-14.006c-.553 0-1 .447-1 1v.006h-14.994c-2.414 0-4.993-1.049-4.999-3.988 0-.004.002-.008.002-.012v-6.008h55.009v6.008c0 .005.002.009.002.012zm-50.014 7.987c-2.183 0-4.024-1.416-4.704-3.37 1.199.874 2.809 1.372 4.704 1.372h14.994v1.998zm29 1.002h-12.006v-3.923c.002-.026.016-.05.016-.077 0-.002-.001-.004-.001-.006h11.991zm16.034-1.004c-.007 0-.013-.004-.02-.004h-14.014v-1.992h14.015c1.896 0 3.505-.498 4.704-1.372-.678 1.948-2.511 3.359-4.685 3.368zm4.978-16.004h-55.009v-.982h55.009zm-40-36.805v16.805c0 .553.447 1 1 1s1-.447 1-1v-20.762c3.48-1.49 7.176-2.254 11.001-2.254s7.521.764 11.001 2.254v20.762c0 .553.447 1 1 1s1-.447 1-1v-16.805c9.157 4.814 14.999 14.37 14.999 24.793v3.031h-56v-3.031c0-10.423 5.842-19.98 14.999-24.793zm-16.999 30.824c0-.552.448-1 1-1h58c.552 0 1 .448 1 1v1.998c0 .552-.448 1-1 1h-58c-.552 0-1-.448-1-1z"/></svg>