<?xml version="1.0" encoding="iso-8859-1"?>
<!-- Generator: Adobe Illustrator 17.1.0, SVG Export Plug-In . SVG Version: 6.00 Build 0)  -->
<!DOCTYPE svg PUBLIC "-//W3C//DTD SVG 1.1//EN" "http://www.w3.org/Graphics/SVG/1.1/DTD/svg11.dtd">
<svg version="1.1" id="Capa_1" xmlns="http://www.w3.org/2000/svg" xmlns:xlink="http://www.w3.org/1999/xlink" x="0px" y="0px"
	 viewBox="0 0 471.753 471.753" style="enable-background:new 0 0 471.753 471.753;" xml:space="preserve">
<g>
	<path d="M462.527,140.515l-11.313-11.313c-2.928-2.928-6.82-4.54-10.96-4.54s-8.033,1.612-10.96,4.54l-0.354,0.353l-12.021-12.021
		l6.01-6.01c2.929-2.929,2.929-7.677,0-10.606l-73.539-73.54c-11.165-11.164-27.838-14.605-42.505-8.781l-85.896,31.779
		c-4.308,1.593-6.82,5.874-6.11,10.411c0.708,4.52,4.395,7.815,8.966,8.015c51.37,2.242,75.739,9.179,80.999,14.438
		c10.826,10.826,2.737,20.598,0,23.334L178.667,232.749c-1.377-0.394-2.814-0.607-4.286-0.607c-4.14,0-8.033,1.613-10.96,4.54
		L6.883,393.219C2.445,397.658,0,403.559,0,409.837s2.445,12.179,6.883,16.617l22.627,22.627v0
		c4.582,4.581,10.599,6.872,16.617,6.872c6.018,0,12.036-2.291,16.617-6.872l156.538-156.538c4.12-4.12,5.425-10,3.928-15.241
		l120.523-120.523c6.434-6.433,16.901-6.433,23.334,0c2.928,2.929,7.677,2.929,10.606,0l6.011-6.011l12.021,12.021l-0.354,0.354
		c-6.043,6.043-6.043,15.876,0,21.92l11.314,11.313c12.281,12.282,32.265,12.281,44.547,0l11.314-11.314
		c5.95-5.95,9.226-13.86,9.226-22.274C471.753,154.375,468.477,146.464,462.527,140.515z M190.645,241.985l104.84-104.84
		l23.335,23.335l-104.84,104.839L190.645,241.985z M208.676,281.936L52.138,438.474c-3.314,3.313-8.706,3.314-12.021,0v0
		L17.49,415.847c-1.605-1.605-2.49-3.74-2.49-6.011s0.884-4.405,2.49-6.011l156.539-156.538c0.036-0.036,0.146-0.146,0.353-0.146
		s0.317,0.11,0.354,0.147l33.941,33.94C208.871,281.424,208.871,281.741,208.676,281.936z M371.733,141.506
		c-12.116-7.345-28.152-5.79-38.606,4.666l-3.701,3.702l-23.335-23.335l9.358-9.358c13.114-13.114,13.114-31.433,0-44.547
		c-8.382-8.382-30.199-14.135-64.995-17.166l61.724-22.836c0.061-0.022,0.122-0.046,0.183-0.07
		c9.11-3.646,19.483-1.517,26.423,5.423l68.236,68.236l-6.01,6.011l-22.625,22.625c-0.001,0.001-0.002,0.001-0.002,0.002
		L371.733,141.506z M394.292,140.162l12.021-12.021l12.021,12.021l-12.021,12.021L394.292,140.162z M451.921,174.456l-11.314,11.314
		c-6.434,6.434-16.901,6.433-23.334,0l-11.314-11.313c-0.195-0.195-0.195-0.512,0-0.707l5.657-5.657
		c0.001-0.001,0.001-0.002,0.002-0.002l22.625-22.625l5.657-5.657c0.036-0.036,0.146-0.146,0.353-0.146s0.317,0.11,0.354,0.146
		l11.314,11.313C458.354,157.555,458.354,168.023,451.921,174.456z"/>
	<path d="M383.685,113.72c1.919,0,3.839-0.732,5.304-2.197c2.929-2.929,2.928-7.678,0-10.606l-5.657-5.656
		c-2.93-2.929-7.678-2.929-10.607,0c-2.929,2.929-2.928,7.678,0,10.606l5.657,5.657C379.847,112.988,381.766,113.72,383.685,113.72z
		"/>
	<path d="M343.733,55.662c-2.929-2.929-7.678-2.929-10.606,0c-2.929,2.929-2.929,7.677,0,10.606l22.627,22.627
		c1.464,1.465,3.384,2.197,5.303,2.197s3.839-0.732,5.303-2.197c2.929-2.929,2.929-7.678,0-10.606L343.733,55.662z"/>
	<path d="M152.107,304.564l-62.313,62.313c-2.929,2.929-2.929,7.677,0,10.606c1.464,1.464,3.384,2.196,5.303,2.196
		s3.839-0.732,5.303-2.196l62.313-62.313c2.929-2.929,2.929-7.678,0-10.606C159.785,301.634,155.036,301.634,152.107,304.564z"/>
	<path d="M174.735,281.936l-5.657,5.657c-2.929,2.929-2.929,7.678,0,10.606c1.464,1.465,3.384,2.197,5.303,2.197
		s3.839-0.732,5.303-2.197l5.657-5.657c2.929-2.929,2.929-7.678,0-10.606C182.413,279.007,177.664,279.007,174.735,281.936z"/>
</g>
<g>
</g>
<g>
</g>
<g>
</g>
<g>
</g>
<g>
</g>
<g>
</g>
<g>
</g>
<g>
</g>
<g>
</g>
<g>
</g>
<g>
</g>
<g>
</g>
<g>
</g>
<g>
</g>
<g>
</g>
</svg>
