<?xml version="1.0" encoding="iso-8859-1"?>
<!-- Generator: Adobe Illustrator 17.1.0, SVG Export Plug-In . SVG Version: 6.00 Build 0)  -->
<!DOCTYPE svg PUBLIC "-//W3C//DTD SVG 1.1//EN" "http://www.w3.org/Graphics/SVG/1.1/DTD/svg11.dtd">
<svg version="1.1" id="Capa_1" xmlns="http://www.w3.org/2000/svg" xmlns:xlink="http://www.w3.org/1999/xlink" x="0px" y="0px"
	 viewBox="0 0 495 495" style="enable-background:new 0 0 495 495;" xml:space="preserve">
<g>
	<path d="M183.5,144.723c-57.07,0-103.5,46.43-103.5,103.5s46.43,103.5,103.5,103.5s103.5-46.43,103.5-103.5
		S240.571,144.723,183.5,144.723z M183.5,336.723c-48.799,0-88.5-39.701-88.5-88.5s39.701-88.5,88.5-88.5s88.5,39.701,88.5,88.5
		S232.3,336.723,183.5,336.723z"/>
	<path d="M487.5,344.723c-4.142,0-7.5,3.358-7.5,7.5v40.5H367V252.196c0-23.653-4.348-46.715-12.635-68.232l7.236-7.236
		c7.357-7.357,8.971-18.921,3.925-28.122c-19.094-34.819-47.59-63.316-82.409-82.409c-9.201-5.046-20.765-3.432-28.122,3.925
		l-6.654,6.654c-19.583-7.583-40.488-11.706-61.993-12.032c-50.104-0.771-97.197,18.319-132.602,53.724S-0.738,200.965,0.022,251.07
		c0.737,48.593,20.82,94.136,56.548,128.24c35.409,33.799,81.898,52.413,130.904,52.413H343.5c12.958,0,23.5-10.542,23.5-23.5v-0.5
		h120.5c4.142,0,7.5-3.358,7.5-7.5v-48C495,348.081,491.642,344.723,487.5,344.723z M265.601,80.728
		c2.673-2.672,6.909-3.241,10.304-1.379c32.309,17.717,58.751,44.159,76.469,76.469c1.861,3.394,1.294,7.63-1.379,10.303
		l-3.054,3.054c-8.478-17.398-19.67-33.549-33.353-47.884c-15.157-15.879-32.578-28.659-51.518-38.032L265.601,80.728z M352,408.223
		c0,4.687-3.813,8.5-8.5,8.5H187.474c-93.704,0-171.066-74.414-172.454-165.88c-0.698-46.012,16.822-89.256,49.333-121.768
		c31.888-31.888,74.098-49.353,119.121-49.353c0.88,0,1.765,0.007,2.646,0.02C277.587,81.13,352,158.493,352,252.196V408.223z"/>
	<path d="M229.009,119.491c5.83,2.061,11.573,4.547,17.073,7.39c1.101,0.569,2.278,0.839,3.438,0.839
		c2.715,0,5.336-1.479,6.669-4.058c1.902-3.68,0.461-8.204-3.219-10.106c-6.107-3.157-12.486-5.918-18.96-8.207
		c-3.907-1.381-8.19,0.666-9.571,4.571C223.058,113.825,225.104,118.11,229.009,119.491z"/>
	<path d="M276.086,128.296c-3.277-2.533-7.988-1.93-10.521,1.346c-2.533,3.277-1.931,7.987,1.346,10.521
		c16.306,12.606,29.759,28.995,38.902,47.393c1.311,2.637,3.964,4.164,6.722,4.164c1.121,0,2.26-0.252,3.332-0.785
		c3.709-1.844,5.222-6.345,3.378-10.054C309.099,160.464,294.175,142.281,276.086,128.296z"/>
	<path d="M235.195,209.748c-3.586,2.073-4.813,6.661-2.74,10.247c4.936,8.539,7.545,18.3,7.545,28.229
		c0,31.154-25.346,56.5-56.5,56.5s-56.5-25.346-56.5-56.5s25.346-56.5,56.5-56.5c12.988,0,25.197,4.283,35.307,12.387
		c3.233,2.591,7.953,2.07,10.543-1.161c2.591-3.232,2.071-7.952-1.161-10.543c-12.617-10.113-28.488-15.683-44.689-15.683
		c-39.425,0-71.5,32.075-71.5,71.5s32.075,71.5,71.5,71.5s71.5-32.075,71.5-71.5c0-12.561-3.305-24.917-9.559-35.735
		C243.369,208.9,238.781,207.675,235.195,209.748z"/>
</g>
<g>
</g>
<g>
</g>
<g>
</g>
<g>
</g>
<g>
</g>
<g>
</g>
<g>
</g>
<g>
</g>
<g>
</g>
<g>
</g>
<g>
</g>
<g>
</g>
<g>
</g>
<g>
</g>
<g>
</g>
</svg>
