<?xml version="1.0" encoding="iso-8859-1"?>
<!-- Generator: Adobe Illustrator 17.1.0, SVG Export Plug-In . SVG Version: 6.00 Build 0)  -->
<!DOCTYPE svg PUBLIC "-//W3C//DTD SVG 1.1//EN" "http://www.w3.org/Graphics/SVG/1.1/DTD/svg11.dtd">
<svg version="1.1" id="Capa_1" xmlns="http://www.w3.org/2000/svg" xmlns:xlink="http://www.w3.org/1999/xlink" x="0px" y="0px"
	 viewBox="0 0 491.599 491.599" style="enable-background:new 0 0 491.599 491.599;" xml:space="preserve">
<g>
	<path d="M314.73,143.641c-4.439,4.438-6.883,10.34-6.883,16.617s2.445,12.179,6.883,16.617c4.581,4.582,10.599,6.872,16.617,6.872
		c6.018,0,12.036-2.291,16.617-6.872c4.438-4.438,6.883-10.34,6.883-16.617s-2.445-12.179-6.883-16.618
		C338.801,134.479,323.892,134.479,314.73,143.641z M337.357,166.268L337.357,166.268c-3.314,3.315-8.707,3.314-12.021,0
		c-1.605-1.605-2.49-3.739-2.49-6.01s0.884-4.405,2.49-6.01c1.657-1.657,3.833-2.486,6.011-2.486c2.176,0,4.354,0.829,6.01,2.485
		c1.605,1.605,2.49,3.74,2.49,6.011S338.963,164.663,337.357,166.268z"/>
	<path d="M488.35,23.983c-2.981-2.062-7.009-1.698-9.571,0.864l-83.619,83.619c-1.5,1.5-2.294,3.563-2.187,5.681
		c0.241,4.773-1.438,9.213-4.726,12.501c-6.43,6.428-16.895,6.431-23.319,0.014c-6.425-6.434-6.422-16.897,0.007-23.326
		c3.288-3.289,7.73-4.973,12.501-4.726c2.119,0.108,4.182-0.688,5.681-2.188l83.619-83.619c2.563-2.562,2.926-6.59,0.865-9.57
		c-2.062-2.98-5.958-4.06-9.26-2.566c-1.799,0.814-44.552,20.272-87.578,49.18c-40.849,27.446-67.428,53.59-79.475,78.097
		c-31.914,2.268-91.003,11.593-149.999,47.593C74.961,216.011,27.947,278.036,1.552,359.889
		c-3.647,11.307-0.691,23.553,7.715,31.959c3.508,3.508,7.865,6.167,12.594,7.688c3.202,1.033,6.451,1.524,9.647,1.524
		c13.305,0,25.701-8.505,30-21.833c22.139-68.654,61.367-119.806,116.594-152.034c43.44-25.35,87.231-33.566,117.329-35.889
		c0.725,0.85,1.473,1.679,2.262,2.472c0.015,0.016,0.028,0.033,0.044,0.048l0.022,0.022c0.011,0.011,0.024,0.021,0.035,0.032
		c0.771,0.768,1.589,1.517,2.467,2.254c-4.38,56.588-32.023,183.67-187.909,233.94c-8.145,2.627-14.484,8.281-18.186,15.315
		c-0.032,0.061-0.067,0.121-0.099,0.182c-0.127,0.245-0.246,0.495-0.366,0.743c-0.12,0.246-0.243,0.491-0.357,0.739
		c-0.006,0.012-0.01,0.025-0.016,0.037c-2.759,6.051-3.527,12.796-2.145,19.425c0.064,0.307,0.151,0.607,0.224,0.911
		c0.066,0.272,0.127,0.543,0.2,0.815c0.122,0.457,0.258,0.907,0.4,1.356c0.012,0.039,0.022,0.077,0.034,0.116
		c0.012,0.037,0.027,0.073,0.039,0.11c1.526,4.716,4.12,9.005,7.648,12.532c5.99,5.991,13.989,9.246,22.253,9.246
		c2.146,0,4.313-0.22,6.464-0.668c20.526-4.276,74.023-19.304,127.334-66.369c23.417-20.672,43.513-44.777,59.732-71.644
		c13.396-22.19,24.172-46.369,32.214-72.153c10.806-33.395,14.606-62.504,15.9-80.578
		c65.748-32.398,124.756-161.353,127.288-166.942C492.409,29.943,491.33,26.045,488.35,23.983z M341,247.745
		c-2.633,11.924-5.817,23.477-9.525,34.667c-6.558,18.918-15.494,39.011-27.66,59.119c-38.521,63.668-97.982,108.827-176.73,134.221
		c-5.925,1.91-12.341,0.36-16.749-4.046c-1.857-1.856-3.208-4.072-4.018-6.591c-0.311-0.964-0.521-1.944-0.651-2.928
		c-0.012-0.094-0.034-0.188-0.045-0.282c-0.031-0.265-0.036-0.531-0.053-0.797c-0.018-0.286-0.047-0.572-0.051-0.857
		c-0.002-0.131,0.011-0.261,0.012-0.392c0.005-0.415,0.013-0.829,0.049-1.241c0.003-0.035,0.01-0.069,0.014-0.104
		c0.25-2.634,1.134-5.186,2.626-7.462c2.416-3.687,6.122-6.211,10.439-7.11c6.029-1.258,148.128-32.687,188.237-195.165
		c0.136-0.55,0.201-1.1,0.213-1.643c0.421-1.692,0.824-3.368,1.208-5.028l32.961,4.709C341.168,247.115,341.071,247.424,341,247.745
		z M47.233,374.623c-2.793,8.659-12.11,13.429-20.774,10.635c-2.512-0.808-4.728-2.159-6.585-4.016
		c-4.406-4.407-5.957-10.824-4.045-16.749c25.261-78.336,70.101-137.603,133.273-176.151c31.84-19.429,63.708-30.708,90.913-37.244
		l4.689,32.825c0.023,0.161,0.057,0.317,0.09,0.475C178.732,200.808,88.417,246.908,47.233,374.623z M259.458,181.137l-4.746-33.224
		c11.606-2.239,22.039-3.613,30.853-4.443c-1.394,5.711-1.965,11.325-1.673,16.834c0.317,5.985,1.427,11.582,3.281,16.688
		C278.951,177.834,269.607,179.141,259.458,181.137z M353.485,188.345c-2.628,1.12-4.391,3.635-4.549,6.487
		c-0.535,9.694-1.764,22.487-4.404,37.346c-0.272-0.071-0.549-0.13-0.834-0.171l-32.363-4.624
		c2.363-13.151,3.583-24.835,4.174-34.288c0.163-2.612-1.047-5.121-3.193-6.618c-1.603-1.119-2.862-2.152-3.959-3.248
		c-5.767-5.773-8.959-13.753-9.487-23.718c-1.445-27.321,26.255-60.902,80.107-97.112c14.989-10.079,30.119-19.06,43.403-26.454
		l-47.699,47.699c-7.669,0.458-14.941,3.671-20.354,9.084c-12.273,12.272-12.28,32.25-0.007,44.54
		c12.282,12.265,32.259,12.259,44.532-0.014c5.414-5.413,8.627-12.685,9.084-20.354l47.599-47.599
		C432.177,111.196,393.035,171.492,353.485,188.345z"/>
</g>
<g>
</g>
<g>
</g>
<g>
</g>
<g>
</g>
<g>
</g>
<g>
</g>
<g>
</g>
<g>
</g>
<g>
</g>
<g>
</g>
<g>
</g>
<g>
</g>
<g>
</g>
<g>
</g>
<g>
</g>
</svg>
