<?xml version="1.0" encoding="iso-8859-1"?>
<!-- Generator: Adobe Illustrator 17.1.0, SVG Export Plug-In . SVG Version: 6.00 Build 0)  -->
<!DOCTYPE svg PUBLIC "-//W3C//DTD SVG 1.1//EN" "http://www.w3.org/Graphics/SVG/1.1/DTD/svg11.dtd">
<svg version="1.1" id="Capa_1" xmlns="http://www.w3.org/2000/svg" xmlns:xlink="http://www.w3.org/1999/xlink" x="0px" y="0px"
	 viewBox="0 0 505.184 505.184" style="enable-background:new 0 0 505.184 505.184;" xml:space="preserve">
<g>
	<path d="M500.651,84.411l-33.941-33.94c-2.928-2.928-6.82-4.541-10.96-4.541s-8.033,1.612-10.96,4.54L155.937,339.324l-79.55-79.55
		c-12.282-12.282-32.266-12.282-44.548,0L9.212,282.401c-12.282,12.282-12.282,32.266,0,44.548L139.32,457.056
		c0.18,0.18,0.367,0.348,0.561,0.507c0.977,0.799,2.108,1.314,3.285,1.547c0.002,0,0.004,0.001,0.006,0.001
		c0.217,0.043,0.435,0.073,0.654,0.096c0.023,0.002,0.046,0.008,0.07,0.01c0.242,0.024,0.485,0.036,0.728,0.036c0,0,0,0,0,0h0
		c0,0,0.001,0,0.001,0c0.383,0,0.766-0.037,1.145-0.096c0.052-0.008,0.105-0.013,0.157-0.023c0.371-0.065,0.737-0.162,1.096-0.283
		c0.027-0.009,0.055-0.012,0.082-0.021c0.031-0.011,0.059-0.028,0.091-0.039c0.596-0.218,1.17-0.512,1.706-0.886
		c0.066-0.046,0.13-0.095,0.195-0.143c0.194-0.145,0.382-0.3,0.564-0.466c0.061-0.055,0.124-0.108,0.182-0.165
		c0.027-0.026,0.056-0.048,0.083-0.075l350.725-350.725C506.695,100.288,506.695,90.455,500.651,84.411z M138.892,435.416
		L30.778,327.303l45.962-45.962l71.344,71.344L138.892,435.416z M19.818,293.008l22.627-22.627c3.117-3.116,7.26-4.833,11.667-4.833
		s8.551,1.716,11.667,4.833l0.354,0.354l-45.962,45.962l-0.354-0.354c-3.116-3.117-4.833-7.26-4.833-11.667
		S16.702,296.124,19.818,293.008z M490.045,95.725l-18.398,18.398l-11.667-11.667c-2.929-2.929-7.678-2.929-10.606,0
		c-2.929,2.929-2.929,7.678,0,10.606l11.667,11.667l-6.364,6.364l-6.01-6.011c-2.928-2.929-7.677-2.929-10.606,0
		c-2.929,2.929-2.929,7.677,0,10.606l6.01,6.011l-6.364,6.364l-6.011-6.01c-2.929-2.93-7.678-2.929-10.606,0
		c-2.929,2.929-2.929,7.678,0,10.606l6.011,6.01l-6.364,6.364l-6.011-6.01c-2.929-2.93-7.678-2.929-10.606,0
		c-2.929,2.929-2.929,7.678,0,10.606l6.011,6.01l-6.364,6.364l-11.667-11.667c-2.929-2.929-7.678-2.929-10.606,0
		c-2.929,2.929-2.929,7.678,0,10.606l11.667,11.667l-6.364,6.364l-6.01-6.011c-2.928-2.929-7.677-2.929-10.606,0
		c-2.929,2.929-2.929,7.677,0,10.606l6.01,6.011l-6.364,6.364l-6.011-6.01c-2.929-2.93-7.678-2.929-10.606,0
		c-2.929,2.929-2.929,7.678,0,10.606l6.011,6.01l-6.364,6.364l-6.011-6.01c-2.929-2.93-7.678-2.929-10.606,0
		c-2.929,2.929-2.929,7.678,0,10.606l6.011,6.01l-6.364,6.364l-11.667-11.667c-2.928-2.929-7.677-2.929-10.606,0
		c-2.929,2.929-2.929,7.677,0,10.606l11.667,11.667l-6.364,6.364l-6.011-6.01c-2.929-2.93-7.678-2.929-10.606,0
		c-2.929,2.929-2.929,7.678,0,10.606l6.011,6.01l-6.364,6.364l-6.011-6.01c-2.929-2.93-7.678-2.929-10.606,0
		c-2.929,2.929-2.929,7.678,0,10.606l6.011,6.01l-6.364,6.364l-6.01-6.011c-2.928-2.93-7.677-2.929-10.606,0s-2.929,7.677,0,10.606
		l6.01,6.011l-6.364,6.364l-11.667-11.667c-2.928-2.929-7.677-2.929-10.606,0c-2.929,2.929-2.929,7.677,0,10.606l11.667,11.667
		l-6.364,6.364l-6.011-6.01c-2.929-2.93-7.678-2.929-10.606,0c-2.929,2.929-2.929,7.678,0,10.606l6.011,6.01l-6.364,6.364
		l-6.011-6.01c-2.929-2.93-7.678-2.929-10.606,0c-2.929,2.929-2.929,7.678,0,10.606l6.011,6.01l-6.364,6.364l-6.01-6.011
		c-2.929-2.929-7.678-2.929-10.606,0c-2.929,2.929-2.929,7.677,0,10.606l6.01,6.011l-6.364,6.364l-11.667-11.667
		c-2.929-2.93-7.678-2.929-10.606,0c-2.929,2.929-2.929,7.678,0,10.606l11.667,11.667l-35.073,35.073l8.662-77.958L455.397,61.076
		c0.036-0.036,0.146-0.146,0.353-0.146s0.317,0.11,0.354,0.146l33.941,33.941C490.24,95.213,490.24,95.53,490.045,95.725z"/>
	<path d="M79.701,359.42l36,36c1.464,1.464,3.384,2.197,5.303,2.197s3.839-0.732,5.303-2.197c2.929-2.929,2.929-7.678,0-10.606
		l-36-36c-2.929-2.929-7.678-2.929-10.606,0C76.772,351.742,76.772,356.491,79.701,359.42z"/>
	<path d="M66.308,324.813c-2.929-2.929-7.678-2.929-10.606,0c-2.929,2.929-2.929,7.678,0,10.606l8,8
		c1.464,1.464,3.384,2.197,5.303,2.197s3.839-0.732,5.303-2.197c2.929-2.929,2.929-7.678,0-10.606L66.308,324.813z"/>
</g>
<g>
</g>
<g>
</g>
<g>
</g>
<g>
</g>
<g>
</g>
<g>
</g>
<g>
</g>
<g>
</g>
<g>
</g>
<g>
</g>
<g>
</g>
<g>
</g>
<g>
</g>
<g>
</g>
<g>
</g>
</svg>
