<svg height="496pt" viewBox="0 -32 496 496" width="496pt" xmlns="http://www.w3.org/2000/svg"><path d="m144 176c-61.761719 0-112 50.238281-112 112s50.238281 112 112 112 112-50.238281 112-112-50.238281-112-112-112zm0 16c44.632812 0 82.144531 30.664062 92.839844 72h-61.046875c-7.3125-9.65625-18.785157-16-31.792969-16s-24.488281 6.34375-31.792969 16h-61.046875c10.695313-41.335938 48.207032-72 92.839844-72zm96 96c0 2.703125-.183594 5.351562-.40625 8h-56.402344c.527344-2.585938.808594-5.265625.808594-8s-.28125-5.414062-.808594-8h56.402344c.222656 2.648438.40625 5.296875.40625 8zm-135.191406 8h-56.402344c-.222656-2.648438-.40625-5.296875-.40625-8s.183594-5.351562.40625-8h56.402344c-.527344 2.585938-.808594 5.265625-.808594 8s.28125 5.414062.808594 8zm39.191406-32c13.230469 0 24 10.769531 24 24s-10.769531 24-24 24-24-10.769531-24-24 10.769531-24 24-24zm0 120c-44.632812 0-82.144531-30.664062-92.839844-72h61.046875c7.3125 9.65625 18.785157 16 31.792969 16s24.488281-6.34375 31.792969-16h61.046875c-10.695313 41.335938-48.207032 72-92.839844 72zm0 0"/><path d="m472 352h-184v-64c0-79.398438-64.601562-144-144-144s-144 64.601562-144 144 64.601562 144 144 144h136c4.414062 0 8-3.585938 8-8v-24h160v24c0 4.414062 3.585938 8 8 8h32c4.414062 0 8-3.585938 8-8v-48c0-13.230469-10.769531-24-24-24zm-200 64h-128c-70.574219 0-128-57.425781-128-128s57.425781-128 128-128 128 57.425781 128 128zm16-32v-16h161.472656c-.898437 2.511719-1.472656 5.183594-1.472656 8v8zm192 32h-16v-40c0-4.40625 3.59375-8 8-8s8 3.59375 8 8zm0 0"/><path d="m488 16h-424v-8c0-4.414062-3.585938-8-8-8h-48c-4.414062 0-8 3.585938-8 8v128c0 4.414062 3.585938 8 8 8h48c4.414062 0 8-3.585938 8-8v-8h424c4.414062 0 8-3.585938 8-8v-96c0-4.414062-3.585938-8-8-8zm-440 112h-32v-112h32zm432-16h-416v-80h16v32h16v-32h16v64h16v-64h16v32h16v-32h16v64h16v-64h16v32h16v-32h16v64h16v-64h16v32h16v-32h16v64h16v-64h16v32h16v-32h16v64h16v-64h16v32h16v-32h16v64h16v-64h32zm0 0"/></svg>