<svg height="496pt" viewBox="-64 0 496 496" width="496pt" xmlns="http://www.w3.org/2000/svg"><path d="m360 448h-25.960938l-126.34375-442.199219c-.984374-3.433593-4.128906-5.800781-7.695312-5.800781h-32c-3.566406 0-6.710938 2.367188-7.695312 5.800781l-126.34375 442.199219h-25.960938c-4.425781 0-8 3.574219-8 8v32c0 4.425781 3.574219 8 8 8h352c4.425781 0 8-3.574219 8-8v-32c0-4.425781-3.574219-8-8-8zm-124.886719-288h-102.226562l9.144531-32h83.9375zm4.566407 16 22.855468 80h-157.070312l22.855468-80zm27.433593 96 9.144531 32h-184.503906l9.140625-32zm13.710938 48 22.855469 80h-239.359376l22.855469-80zm-106.792969-304h19.9375l27.421875 96h-74.789063zm-114.277344 400h248.492188l9.144531 32h-266.78125zm292.246094 64h-336v-16h336zm0 0"/></svg>