<svg id="Layer_1" data-name="Layer 1" xmlns="http://www.w3.org/2000/svg" viewBox="0 0 500 500"><path d="M257.91,156.73v15.18a38.13,38.13,0,0,1,6.18,1.72c6.23,2.88,9.19,8,9.31,14.77,0,2.32,0,4.65,0,7.06h15.5c0-2.46,0-4.87,0-7.28.06-3.87,2.18-6.79,5.59-7.77a7.73,7.73,0,0,1,10,7.31c.06,2.55,0,5.1,0,7.74h15.58c0-2.35,0-4.71,0-7.07a8.1,8.1,0,0,1,1.53-5.24,7.84,7.84,0,0,1,8.74-2.67,7.51,7.51,0,0,1,5.18,7c.07,2.6,0,5.2,0,7.92h15.61c0-1.11,0-2.29,0-3.48a34.4,34.4,0,0,1,.17-5.57c.78-4.25,4.25-6.63,8.68-6.21,3.78.36,6.62,3.67,6.72,7.95.06,2.41,0,4.83,0,7.33h15.42c0-.45.05-.94.06-1.43.05-2.41-.05-4.84.19-7.24a7.43,7.43,0,0,1,8-6.67,7.57,7.57,0,0,1,7.33,7.48c.05,2.59,0,5.19,0,7.87h15.62c0-2.59,0-5.18,0-7.76a7.39,7.39,0,0,1,4.39-6.9,7.64,7.64,0,0,1,11,6.28c.19,3.34.06,6.7.14,10a1.91,1.91,0,0,0,.74,1.4c3.58,1.83,7.2,3.57,11,5.41,1.78-1.79,3.79-3.86,5.87-5.85,4.46-4.3,11.54-2.49,13.11,3.38a7.84,7.84,0,0,1-2.36,7.88c-1.93,1.95-3.88,3.88-5.7,5.69,1.65,3.17,3.47,6.15,4.8,9.34s2.14,6.5,3.25,10h7.48a8.39,8.39,0,0,1,5.89,2.11A7.73,7.73,0,0,1,468,250c-2.88.06-5.76,0-8.74,0a46.25,46.25,0,0,1-9.41,21.22c2.55,2.58,5,5.08,7.51,7.59a7.7,7.7,0,0,1,2.19,8,7.79,7.79,0,0,1-13,3.15c-2.54-2.46-5-5-7.49-7.52a1.3,1.3,0,0,0-1.87-.27c-2.37,1.25-4.79,2.43-7.24,3.53a1.53,1.53,0,0,0-1.1,1.63c0,4.52.09,9-.09,13.54a7.67,7.67,0,0,1-7.7,7.15,7.79,7.79,0,0,1-7.66-7.52c-.07-3.81,0-7.63,0-11.55H397.83c0,.45-.06.94-.06,1.43,0,3.07,0,6.14,0,9.21,0,4.85-3.34,8.44-7.78,8.42s-7.7-3.55-7.78-8.32c0-3.3,0-6.6,0-9.91a8.27,8.27,0,0,0-.11-.87H366.72c0,.75,0,1.44,0,2.12-.06,3.44.09,6.9-.23,10.31a7.61,7.61,0,0,1-7.84,6.66,7.83,7.83,0,0,1-7.49-7.56c-.08-3.3,0-6.61,0-9.91V289H335.61c0,.53-.06,1-.06,1.52,0,3.39.05,6.79-.05,10.19a7.69,7.69,0,0,1-15.37.09c-.12-3.4-.05-6.8-.06-10.19,0-.5,0-1,0-1.61H304.49c0,3.65.15,7.28-.07,10.88a10.25,10.25,0,0,1-1.46,4.81,7.27,7.27,0,0,1-8.67,3,8,8,0,0,1-5.38-7.69c-.05-3.11,0-6.23,0-9.35v-1.71H273.4c0,1.25.06,2.39,0,3.53-.15,2.78,0,5.64-.63,8.31-1.69,7-7.86,11.52-15.36,11.54-11.08,0-22.16,0-33.23,0H222.5c.54,1.1,1,2,1.43,2.91a31,31,0,0,1-28.87,43.71q-61.63,0-123.28,0a31.15,31.15,0,0,1-30.41-22.53,29.82,29.82,0,0,1,2.48-23.07c.13-.24.24-.5.35-.75,0,0,0-.09-.05-.17-2.1-.12-4.23-.14-6.33-.37-6.54-.72-12.59-6.57-13-13.16-.62-9.26-.55-18.52,2.71-27.41Q38,243,67.46,235.77A55.25,55.25,0,0,1,80.6,234.4H149V204c0-7.93,4.45-13.76,12.13-15.76a17.62,17.62,0,0,1,4.41-.45q29.67,0,59.34,0h1.73c1-9.37,6.17-14.65,15.67-15.67,0-1.34,0-2.68,0-4,.06-4.46-.2-9,.27-13.38.83-7.77,7.19-13.27,15.07-13.55.61,0,1.21,0,1.82,0q87.95,0,175.91,0c11.69,0,22.16,3.37,31.12,10.91a53.27,53.27,0,0,1,7.51,8,7.6,7.6,0,0,1-1.55,10.69,7.81,7.81,0,0,1-10.57-1.09,67.31,67.31,0,0,0-6.45-6.52c-5.55-4.5-12.07-6.39-19.17-6.39q-40.14,0-80.28,0h-98Zm15.58,116.52c.57,0,1.07.07,1.57.07q68.67,0,137.34,0a33.77,33.77,0,0,0,15.19-3.49c13.3-6.55,20.09-23.31,15.3-37.32a31.64,31.64,0,0,0-30.15-21.4q-68.89.13-137.77,0h-1.48ZM133.33,343.3h0c20.89,0,41.79.08,62.68,0,11.75-.06,19-13.15,13.05-23.27-3.13-5.29-7.9-7.76-14-7.76q-43.77,0-87.54,0c-12.29,0-24.57-.07-36.86,0-10.38.1-17.67,11.05-14,20.81a16.2,16.2,0,0,0,15.15,10.26C92.28,343.23,112.8,343.3,133.33,343.3Zm15.56-46.73V250h-1.3c-22.75,0-45.5,0-68.25.05A41.07,41.07,0,0,0,70,251.19,37.55,37.55,0,0,0,47.7,265.93a39.36,39.36,0,0,0-7.6,23.44c0,2.4,0,4.8,0,7.2Zm15.78-93.13v93.13h61.94V273.32h-1.78c-6.93,0-13.87-.05-20.8,0a8.57,8.57,0,0,1-6.51-2.61q-7.38-7.43-14.8-14.82a8.2,8.2,0,0,1-2.64-5.94c0-5.45-.23-10.91.1-16.33C180.71,224.9,187.25,219,196,219c9.63,0,19.26,0,28.9,0h1.71V203.44Zm77.69-15.59v108.7h15.41V187.85Zm-46.75,46.64c0,3.81,0,7.48,0,11.15a3.14,3.14,0,0,0,.79,1.91q4.6,4.77,9.36,9.38a3.26,3.26,0,0,0,2,.86c5.82.07,11.63,0,17.44,0h1.4V234.49Zm233.26,7.8a15.55,15.55,0,1,0-15.7,15.52A15.52,15.52,0,0,0,428.87,242.29ZM86.74,327.74a7.74,7.74,0,0,0-7.8-7.78,7.8,7.8,0,1,0,0,15.6A7.72,7.72,0,0,0,86.74,327.74Zm108.93,0a7.74,7.74,0,0,0-7.84-7.74,7.8,7.8,0,1,0,.13,15.59A7.7,7.7,0,0,0,195.67,327.7Zm-93.33-46.61v0c8,0,15.91.08,23.86,0a7.47,7.47,0,0,0,7.19-7.87,7.56,7.56,0,0,0-7.42-7.53q-23.65-.06-47.3,0a7.13,7.13,0,0,0-6.46,3.95,7.7,7.7,0,0,0,7,11.49C86.9,281.13,94.62,281.09,102.34,281.09Zm311.08-54.4a15.56,15.56,0,1,0,15.45,15.6A15.59,15.59,0,0,0,413.42,226.69ZM78.94,320a7.8,7.8,0,1,0,0,15.6,7.8,7.8,0,0,0,0-15.6Zm108.89,0a7.8,7.8,0,1,0,.13,15.59,7.8,7.8,0,0,0-.13-15.59Zm-85.49-38.9c8,0,15.91.08,23.86,0a7.47,7.47,0,0,0,7.19-7.87,7.56,7.56,0,0,0-7.42-7.53q-23.65-.06-47.3,0a7.13,7.13,0,0,0-6.46,3.95,7.7,7.7,0,0,0,7,11.49c7.73.06,15.45,0,23.17,0Z"/></svg>